<?xml version="1.0" encoding="UTF-8" standalone="no"?>
<!-- Created with Inkscape (http://www.inkscape.org/) -->

<svg
   version="1.1"
   id="svg875"
   width="427"
   height="402"
   viewBox="0 0 427 402"
   sodipodi:docname="88x88.svg"
   inkscape:version="1.2.2 (732a01da63, 2022-12-09)"
   xmlns:inkscape="http://www.inkscape.org/namespaces/inkscape"
   xmlns:sodipodi="http://sodipodi.sourceforge.net/DTD/sodipodi-0.dtd"
   xmlns="http://www.w3.org/2000/svg"
   xmlns:svg="http://www.w3.org/2000/svg">
  <defs
     id="defs879" />
  <sodipodi:namedview
     id="namedview877"
     pagecolor="#ffffff"
     bordercolor="#000000"
     borderopacity="0.25"
     inkscape:showpageshadow="2"
     inkscape:pageopacity="0.0"
     inkscape:pagecheckerboard="0"
     inkscape:deskcolor="#d1d1d1"
     showgrid="false"
     inkscape:zoom="0.58706468"
     inkscape:cx="207.81356"
     inkscape:cy="201"
     inkscape:window-width="1920"
     inkscape:window-height="1017"
     inkscape:window-x="1912"
     inkscape:window-y="-8"
     inkscape:window-maximized="1"
     inkscape:current-layer="g881" />
  <g
     inkscape:groupmode="layer"
     inkscape:label="Image"
     id="g881">
    <g
       id="g1365"
       transform="translate(1.7033903,-0.220339)">
      <path
         style="fill:#bac3de"
         d="M 74,401.00974 0.5,400.5 0.24743078,209.78127 C 9.3037781e-4,23.645196 0.0399223,19.079817 1.87018,19.781274 c 1.0314251,0.395299 9.582581,8.188727 19.002569,17.318729 L 38,53.700006 38.015313,206.6 c 0.0095,94.6143 0.376764,153.4718 0.963503,154.4 0.80652,1.27588 5.473354,1.51433 31.234688,1.59593 16.657573,0.0528 31.072176,-0.29959 32.032456,-0.78302 1.64451,-0.82788 1.76071,-7.83408 2,-120.58226 0.22385,-105.47585 0.43232,-119.73696 1.75404,-119.98643 1.57369,-0.29703 51.59587,47.26507 53.71456,51.0729 0.85605,1.53853 1.22503,9.3169 1.25,26.35109 0.0195,13.29252 0.30858,24.88002 0.64243,25.75 0.53149,1.38503 3.77176,1.58179 26.04966,1.58179 21.45551,0 25.9442,0.25357 28.64301,1.61806 1.76019,0.88993 7.25034,5.52052 12.20034,10.29019 4.95,4.76968 41.85,40.39273 82,79.16235 40.15,38.76962 75.5875,72.90431 78.75,75.85486 3.1625,2.95056 5.75,5.91176 5.75,6.58044 0,1.78309 -57.05903,2.65123 -65.02299,0.9893 -9.70301,-2.02483 -13.79975,-5.53338 -35.02375,-29.9952 -14.68913,-16.93002 -81.04755,-90.74734 -82.9092,-92.22844 -1.1445,-0.91056 -7.88398,-1.16933 -26.04406,-1 l -24.5,0.22844 -0.5,61 -0.5,61 -3.5,1.19356 c -1.925,0.65645 -4.85,1.11084 -6.5,1.00974 -1.65,-0.1011 -36.075,-0.4132 -76.5,-0.69356 z M 408.82994,364.58333 C 393.76996,350.05737 391.32947,347.03389 389.39034,340.5 388.88746,338.80554 388.5,273.27055 388.5,189.90758 388.5,66.282716 388.27713,42.045982 387.12756,40.657578 385.86039,39.127154 373.84746,39 230.52678,39 125.57922,39 74.331505,38.662922 72.313275,37.959364 70.410439,37.296031 63.558133,30.540272 53.414052,19.326426 44.661323,9.6506601 37.725,1.5644241 38,1.3570124 38.275,1.1496007 125.30661,0.98668045 231.40358,0.99496744 c 140.62695,0.0109841 193.26846,0.31788866 194.25,1.13249466 1.93823,1.6085865 2.01819,377.5392079 0.0803,377.5392079 -0.69637,0 -8.30314,-6.7875 -16.90395,-15.08334 z M 301,259.32479 c -3.18699,-1.18749 -35,-34.14226 -35,-36.25614 0,-0.55396 2.40206,-2.54377 5.33791,-4.42181 19.03746,-12.17812 24.0742,-38.87889 11.16382,-59.18168 -3.79848,-5.97347 -7.94458,-9.63988 -14.89429,-13.17107 -9.79756,-4.9782 -12.56767,-5.26949 -50.23244,-5.28222 -19.31875,-0.007 -36.50401,-0.28767 -38.18947,-0.62476 C 174.95881,139.54176 127.5,93.918584 127.5,90.700693 V 88.5 l 62.5,0.06029 c 65.02857,0.06273 72.96793,0.464696 88.54415,4.48291 10.92832,2.819187 26.60466,10.67655 34.6938,17.38938 17.0937,14.18531 29.47799,35.8946 32.83992,57.56742 2.54492,16.40585 -0.25334,38.5343 -6.74368,53.32857 -8.87301,20.2254 -29.95267,41.11921 -38.33419,37.99622 z"
         id="path1379" />
      <path
         style="fill:#9facd1"
         d="m 331.5,400.65575 c -10.85363,-2.81571 -13.0171,-4.65616 -35.38065,-30.09808 -36.31395,-41.31259 -81.36694,-91.11832 -83.94669,-92.80241 -2.35145,-1.53504 -5.52276,-1.74536 -26.38748,-1.75 -22.42559,-0.005 -23.77109,0.0999 -24.75,1.929 -0.68023,1.27102 -1.03518,22.29004 -1.03518,61.3 0,44.84002 -0.29362,59.65936 -1.2,60.56574 -0.91289,0.91289 -19.9291,1.2 -79.480948,1.2 H 1.0381041 L 0.49557457,398.75 C 0.19718335,397.5125 0.07610994,311.47433 0.22652254,207.55407 L 0.5,18.608149 18,35.40143 C 27.625,44.637734 35.95,52.938401 36.5,53.847355 37.149292,54.920404 37.675354,109.33367 38,209 l 0.5,153.5 32,0.26541 c 29.196273,0.24216 32.10952,0.11589 33.25,-1.44113 0.98341,-1.34258 1.25,-27.04513 1.25,-120.51541 0,-94.3808 0.25701,-118.80873 1.25,-118.80818 1.4843,8.2e-4 50.70346,47.23789 52.46456,50.35178 0.85905,1.51891 1.22494,9.37135 1.25,26.8261 0.0303,21.06971 0.26524,24.90837 1.60687,26.25 1.34541,1.34541 5.19514,1.57143 26.7656,1.57143 22.10862,0 25.58612,0.21432 28.39447,1.75 1.76016,0.9625 27.38734,25.15 56.94928,53.75 29.56194,28.6 68.61478,66.36341 86.7841,83.91869 18.16932,17.55527 33.39498,32.51777 33.83481,33.25 0.65642,1.09279 -3.28514,1.33258 -22,1.33842 -12.53983,0.004 -25.72469,0.21831 -29.29969,0.47644 -3.71024,0.2679 -8.64597,-0.0874 -11.5,-0.8278 z m 78.78875,-35.60193 c -12.56549,-11.97248 -16.72597,-16.58274 -18.5,-20.5 L 389.5,339.5 l -0.24724,-149 -0.24724,-149 -2.11355,-1.75 C 384.89947,38.100222 375.865,37.997971 229.13922,37.964565 108.9538,37.937201 73.009136,37.652458 71.345149,36.714565 69.530959,35.692011 53.598021,18.69265 42.396635,5.8284689 40.689784,3.8682438 38.664784,2.0154543 37.896635,1.711159 37.128486,1.4068636 123.8574,1.1223684 230.62756,1.0789474 392.8469,1.0129764 424.94003,1.2228175 425.88017,2.355608 c 0.82661,0.996004 1.05804,51.331234 0.87244,189.750002 L 426.5,380.5 Z M 295.81877,254.25 C 288.32615,247.26548 267,224.24356 267,223.13967 c 0,-0.52229 1.9805,-2.11027 4.4011,-3.52884 5.61768,-3.29218 11.88576,-10.41038 15.04198,-17.0821 9.53823,-20.16216 1.51395,-46.34406 -17.27244,-56.3571 C 258.25206,140.35209 255.21041,140 215.855,140 c -19.64864,0 -36.77621,-0.39974 -38.06126,-0.88832 -3.22792,-1.22726 -49.21512,-46.103343 -49.62603,-48.427002 -0.32303,-1.826711 1.47434,-1.866342 64.5,-1.4222 53.76353,0.378872 66.37868,0.732333 73.88987,2.0703 33.42428,5.953865 56.22359,22.254972 70.16568,50.167222 14.4277,28.88443 12.41276,65.34357 -5.10807,92.42802 C 324.03682,245.64298 308.94438,259 303.28571,259 c -1.4472,0 -4.35725,-1.85119 -7.46694,-4.75 z"
         id="path1377" />
      <path
         style="fill:#7286bc"
         d="m 334.36081,401.01878 c -6.1026,-0.91831 -13.41103,-4.69801 -18.65645,-9.64858 -2.0876,-1.97025 -11.16004,-11.97206 -20.16096,-22.22624 -34.36326,-39.14786 -82.17239,-91.64997 -84.55581,-92.85587 -3.1568,-1.59719 -46.12755,-1.81874 -49.05333,-0.25291 -1.87937,1.00581 -1.93426,2.73875 -1.93426,61.06575 0,39.46823 -0.35458,60.6931 -1.03518,61.96481 C 157.95498,400.95263 156.02515,401 80.164816,401 21.014404,401 2.1127585,400.71276 1.2,399.8 0.27511514,398.87512 0,355.18148 0,209.21667 0,104.49369 0.38295496,19.982344 0.85666177,20.166667 1.3278257,20.35 9.5403257,28.027457 19.106662,37.227683 L 36.5,53.955367 37,208.01425 c 0.439726,135.48752 0.680821,154.17318 2,155.00701 2.338067,1.47784 63.30909,1.26965 64.8,-0.22126 0.9111,-0.9111 1.20028,-18.54575 1.20115,-73.25 0.001,-83.57318 1.01278,-166.55 2.03015,-166.55 1.53026,0 50.54481,48.10466 51.6736,50.71434 0.8246,1.90644 1.21913,10.3764 1.25,26.83566 0.0325,17.31951 0.38092,24.38582 1.2451,25.25 0.86758,0.86758 7.94047,1.2 25.53212,1.2 19.59059,0 25.04651,0.29849 27.99815,1.53177 4.08601,1.70724 5.14779,2.68088 45.26973,41.51193 15.675,15.17067 49.65,47.97296 75.5,72.89397 25.85,24.92102 49.86759,48.18 53.37243,51.68664 l 6.37244,6.37569 -25.87244,0.0136 c -14.22984,0.008 -26.77243,0.18574 -27.87243,0.39606 -1.1,0.21032 -4.31264,0.0344 -7.13919,-0.39093 z m 81.53447,-31.2808 c -5.8326,-5.63089 -13.09703,-12.55842 -16.14318,-15.39452 -4.08513,-3.80342 -6.11786,-6.68992 -7.74644,-11 L 389.79768,337.5 389.95333,190.15764 C 390.0935,57.483069 389.95195,42.575608 388.53144,40.407643 L 386.95389,38 H 231.62617 C 125.21639,38 75.344964,37.667614 73.270881,36.944585 70.460073,35.964732 47.528968,12.111559 42.5,4.9363948 41.4,3.3669517 39.6,1.9004998 38.5,1.677613 37.4,1.4547261 123.65536,1.2110822 230.17857,1.1361821 c 174.8545,-0.1229462 193.8313,0.016549 195.25,1.4352465 C 426.84599,3.9888509 427,22.560606 427,192.07143 c 0,103.36071 -0.1125,187.92316 -0.25,187.91655 -0.1375,-0.007 -5.02212,-4.61911 -10.85472,-10.25 z M 292.37094,250.25 c -14.20609,-14.5855 -24.55889,-26.18618 -24.21488,-27.13362 0.18917,-0.52099 2.59394,-2.48542 5.34394,-4.3654 10.16108,-6.94641 16.39586,-18.474 17.25577,-31.90445 0.84019,-13.12259 -3.72437,-25.86776 -12.35542,-34.49881 -5.52786,-5.52786 -16.65502,-10.91738 -25.40035,-12.30286 -3.575,-0.56636 -22.14351,-1.03315 -41.26336,-1.03731 L 176.97329,139 152.73664,115.44948 C 139.40649,102.4967 128.5,91.359199 128.5,90.699483 c 0,-2.988948 125.68718,-1.410908 141.47144,1.776217 37.5362,7.57923 63.50791,31.55922 73.13327,67.5248 3.39622,12.69014 3.23848,33.69878 -0.35387,47.13183 -4.97954,18.62021 -14.40852,33.62416 -28.02817,44.60003 -10.93045,8.8087 -12.42491,8.70959 -22.35173,-1.48236 z"
         id="path1375" />
      <path
         style="fill:#526aad"
         d="M 336,400.90599 C 324.70937,399.41559 318.90522,394.93247 299.22369,372.5 266.50267,335.20548 213.10925,276.2559 211.48701,275.63339 210.57919,275.28503 199.10537,275 185.98964,275 c -20.34556,0 -24.0775,0.23072 -25.41821,1.57143 -1.39378,1.39378 -1.57143,8.38009 -1.57143,61.8 0,45.51111 -0.29323,60.5218 -1.2,61.42857 -1.73739,1.73739 -154.862609,1.73739 -156.6,0 C 0.27511886,398.87512 0,355.2 0,209.3 0,105.185 0.1125,20.008824 0.25,20.019608 0.3875,20.030392 8.375,27.641694 18,36.933611 L 35.5,53.828006 36,207.37843 c 0.474452,145.70446 0.591257,153.64166 2.285965,155.33599 1.639106,1.63875 4.380052,1.78535 33.332624,1.78283 30.056511,-0.003 31.613611,-0.0943 32.964031,-1.94113 C 105.78688,360.9092 106,342.82877 106,242.30887 106,159.07378 106.31665,124 107.06811,124 c 1.2768,0 49.63013,46.56763 50.98819,49.1052 0.51904,0.96982 0.9437,12.71777 0.9437,26.10655 0,20.41406 0.25126,24.70197 1.5567,26.56574 1.53943,2.19785 1.83958,2.22251 27.04966,2.22251 21.6172,0 25.97259,0.24803 28.64776,1.63141 1.73514,0.89728 11.50029,9.79741 21.70034,19.77807 10.20005,9.98066 44.42054,43.09873 76.04554,73.5957 31.625,30.49697 62.79696,60.58435 69.27101,66.86085 l 11.77101,11.41182 -17.77101,-0.61142 C 367.49696,400.33014 355.225,400.38013 350,400.7775 c -5.225,0.39738 -11.525,0.45519 -14,0.12849 z M 417.47967,370.5 c -4.96119,-4.95 -12.20331,-11.925 -16.0936,-15.5 -12.04984,-11.07323 -10.84741,6.80126 -11.13331,-165.5 l -0.24724,-149 -2.11355,-1.75 C 385.8991,37.099916 376.91022,37 230.45432,37 142.51152,37 74.125883,36.615236 72.8151,36.113061 70.287527,35.144722 42,4.8053968 42,3.0628291 42,2.302752 97.965088,1.9944104 233.98348,2.0050894 l 191.98348,0.015073 0.54001,2.2399189 C 426.80398,5.4920365 426.92391,90.425 426.77349,193 L 426.5,379.5 Z M 299.29206,255.91158 c -3.71216,-2.37768 -30.31516,-30.86855 -30.24522,-32.39155 0.0258,-0.56102 2.30576,-2.59503 5.06666,-4.52003 12.89727,-8.99245 19.85112,-26.68361 16.90197,-43 -3.23371,-17.89076 -15.25812,-30.7861 -33.14643,-35.54724 -4.17223,-1.11048 -13.32357,-1.43167 -41.05394,-1.44089 -21.74897,-0.007 -36.73006,-0.40924 -38.36117,-1.02939 C 175.62493,136.9069 129,92.348125 129,90.720073 c 0,-1.36981 125.62017,-0.265762 134,1.177696 25.19808,4.340472 38.67539,10.423961 53.20159,24.014531 13.96879,13.06905 23.53523,30.21889 27.34523,49.02201 2.26144,11.16065 1.578,31.1105 -1.45821,42.56569 -5.28492,19.93927 -17.70236,37.95729 -32.72447,47.48402 -5.61747,3.5625 -5.91544,3.58994 -10.07208,0.92756 z"
         id="path1373" />
      <path
         style="fill:#2a489a"
         d="M 1.0351838,399.06574 C 0.00482836,397.1405 -0.55826014,22.891593 0.46765501,21.865678 0.72486526,21.608468 8.7123653,28.912195 18.217655,38.096184 L 35.5,54.794344 36,208.93374 c 0.439729,135.55909 0.680813,154.25369 2,155.08752 0.862074,0.5449 14.921487,0.95463 33.05887,0.96343 25.694235,0.0125 31.91959,-0.24844 33.5,-1.40397 1.90004,-1.38924 1.94668,-3.93092 2.20325,-120.0793 0.15837,-71.69582 0.62631,-118.52968 1.1823,-118.33071 0.50611,0.18111 11.7416,10.82259 24.96777,23.64774 20.47218,19.85146 24.21137,23.92672 25.14921,27.40957 0.69567,2.58353 0.99008,12.36475 0.79894,26.54324 l -0.30268,22.45213 2.33195,1.88831 c 2.14601,1.73773 4.31139,1.8883 27.15607,1.8883 13.85706,0 25.96731,0.43464 27.41176,0.98382 1.42319,0.5411 24.52492,22.2536 51.33717,48.25 26.81224,25.9964 65.7271,63.64745 86.47746,83.669 C 374.02243,381.92437 391,398.65387 391,399.07949 c 0,0.42563 0.7875,0.97966 1.75,1.23118 0.9625,0.25153 -2.66406,0.50953 -8.05902,0.57333 -6.31258,0.0746 -9.58872,-0.24045 -9.19098,-0.884 0.39712,-0.64255 -3.15628,-1 -9.94098,-1 C 359.18634,399 355,399.39647 355,400 c 0,0.60899 -4.51967,1 -11.55902,1 -7.45136,0 -11.33939,-0.35536 -10.94098,-1 0.33992,-0.55 -0.10145,-1 -0.98082,-1 -1.92259,0 -8.85587,-3.45037 -12.82459,-6.38221 C 317.11786,391.453 308.33988,381.95 299.18797,371.5 c -36.64702,-41.84493 -85.20071,-95.18478 -87.66664,-96.30833 -2.94246,-1.34067 -48.16373,-1.70635 -50.20877,-0.40601 -3.30337,2.10047 -3.50683,6.296 -3.15846,65.13054 0.27383,46.24444 0.0841,58.50355 -0.91033,58.83541 -0.69093,0.23057 -1.00187,0.83078 -0.69098,1.3338 C 156.89257,400.63519 126.19567,401 79.594201,401 3.972115,401 2.0449733,400.95255 1.0351838,399.06574 Z M 425.3303,377.89611 c -0.64333,-1.43213 -5.79906,-6.83213 -11.45717,-12 -16.6646,-15.22068 -18.50041,-17.28399 -20.76603,-23.33941 L 391,336.92497 V 189.07327 C 391,48.198933 390.91507,41.116687 389.20038,38.999125 l -1.79963,-2.222443 -154.95037,0.15541 C 119.7835,37.045093 76.625209,36.780196 74.294276,35.961361 72.182567,35.219536 66.295677,29.606377 57.044276,19.513454 49.319924,11.086484 43,3.9235593 43,3.5958447 43,3.2681301 129.18912,3 234.53138,3 386.8364,3 426.16009,3.2560048 426.53794,4.25 c 0.26134,0.6875 0.35972,85.625 0.21861,188.75 -0.19721,144.12835 -0.52712,186.89768 -1.42625,184.89611 z M 288.7029,244.75 c -6.50925,-6.7375 -13.61264,-14.34625 -15.78532,-16.90833 l -3.95031,-4.65832 3.44109,-2.12671 c 1.8926,-1.16969 5.87401,-4.75456 8.84758,-7.96636 18.8976,-20.41167 12.74349,-55.68504 -12.0179,-68.88272 -10.71659,-5.71188 -14.84604,-6.17641 -55.0508,-6.19278 L 177.87449,138 153.94777,114.88747 c -13.15969,-12.71189 -23.74981,-23.399393 -23.5336,-23.750001 0.21621,-0.350608 29.12397,-0.380561 64.23947,-0.06656 68.18342,0.609688 72.28449,0.891982 88.34636,6.081261 23.5094,7.59543 42.32196,24.32041 53.00963,47.12732 5.95947,12.71717 8.31487,23.68575 8.31487,38.72051 0,23.591 -7.43524,44.08966 -21.64443,59.67281 C 315.91229,250.09501 306.50408,257 303.15894,257 c -2.04134,0 -5.23865,-2.70939 -14.45604,-12.25 z"
         id="path1371" />
      <path
         style="fill:#203d96"
         d="m 41.324165,400.25028 c 21.353291,-0.15065 56.003291,-0.15058 76.999995,1.5e-4 20.99671,0.15072 3.52584,0.27398 -38.82416,0.2739 -42.35,-8e-5 -59.529126,-0.1234 -38.175835,-0.27405 z M 337.25,400.26496 c 2.6125,-0.206 6.8875,-0.206 9.5,0 2.6125,0.206 0.475,0.37454 -4.75,0.37454 -5.225,0 -7.3625,-0.16854 -4.75,-0.37454 z m 50.5,0.0293 c 1.2375,-0.23836 3.2625,-0.23836 4.5,0 1.2375,0.23835 0.225,0.43337 -2.25,0.43337 -2.475,0 -3.4875,-0.19502 -2.25,-0.43337 z M 0.68891816,397.97421 C -0.40375415,393.88796 -0.09745838,23.698196 1,22 1.8418118,20.697389 1.9713895,20.715821 1.9846872,22.140069 1.9931093,23.042107 9.425,30.9451 18.5,39.702276 L 35,55.624414 V 208.81221 c 0,151.85446 0.01741,153.2052 2,155.18779 1.917556,1.91756 3.333333,2 34.345012,2 30.065328,0 32.461658,-0.12889 33.999998,-1.82874 1.50947,-1.66794 1.6668,-9.07614 1.78935,-84.25 0.0739,-45.33169 0.41139,-98.34862 0.75,-117.8154 L 108.5,126.71172 132,149.35155 c 12.925,12.45191 24.0422,23.87927 24.7049,25.39414 0.82555,1.88717 1.21909,10.32882 1.25,26.81318 0.0359,19.14065 0.33514,24.45569 1.46391,26 1.32997,1.81958 2.94235,1.95336 25.75,2.13647 13.38215,0.10744 25.90619,0.43674 27.83119,0.73178 2.97221,0.45553 9.53191,6.36791 43.5,39.20731 71.34141,68.9709 104.77523,101.25476 129.2766,124.83012 l 4.2766,4.11497 -28.7766,0.14331 C 322.16417,398.91761 326.95996,401.27169 296.65003,367 276.96575,344.74283 226.51679,288.50044 219.16639,280.61834 212.24402,273.19524 211.37496,273 185.25462,273 c -19.02601,0 -23.17827,0.25822 -25.03211,1.5567 L 158,276.11341 157.9847,336.3067 c -0.008,33.10632 -0.37591,60.76134 -0.81663,61.45561 -0.63628,1.00233 -16.69796,1.20829 -77.984808,1 -49.444713,-0.16804 -77.3001557,0.0878 -77.5081089,0.7119 -0.1785389,0.53581 -0.6223401,-0.13919 -0.98622494,-1.5 z M 425.75,379.41669 c -0.4125,-0.41251 -0.75,-1.49212 -0.75,-2.39914 0,-1.47736 -10.71667,-12.38507 -23.2464,-23.66081 -2.53222,-2.27879 -5.65019,-6.10379 -6.92882,-8.5 L 392.5,340.5 391.98719,190 c -0.28205,-82.775 -0.61955,-150.580357 -0.75,-150.678571 -0.13046,-0.09822 -0.94433,-0.885715 -1.80862,-1.75 C 388.01349,36.15635 372.40751,36 232.57779,36 126.07023,36 76.346238,35.668058 74.26681,34.943166 c -1.704408,-0.59416 -6.025018,-4.42485 -9.869068,-8.75 C 60.637156,21.961925 54.430952,15.235189 50.606177,11.244865 L 43.652042,3.9897294 234.32604,4.2448647 C 360.93039,4.4142703 425.01025,4.1639833 425.03043,3.5 c 0.0167,-0.55 0.46788,-0.2503484 1.0026,0.6658924 C 427.18967,6.1477989 426.90726,380.57398 425.75,379.41669 Z M 290.71909,245.25 c -16.49315,-17.07752 -20.11858,-21.2611 -19.13646,-22.08266 0.50456,-0.42206 3.05283,-2.46083 5.66284,-4.5306 24.21455,-19.20243 19.79825,-61.53119 -7.87024,-75.43361 C 258.22069,137.59838 252.83661,137 213.56068,137 h -35.5445 L 155.25809,114.89484 C 142.74114,102.737 132.32563,92.313891 132.11251,91.732379 131.59813,90.328837 242.29188,91.507169 257.5,93.067124 c 37.91821,3.889418 63.14274,20.752826 78.02292,52.160826 14.15075,29.86837 9.47478,69.11419 -11.26098,94.51451 C 319.06221,246.11188 306.42538,256 303.48511,256 c -1.72013,0 -5.27455,-2.9931 -12.76602,-10.75 z"
         id="path1369" />
      <path
         style="fill:#1e4194"
         d="m 425.75,379.41669 c -0.4125,-0.41251 -0.75,-1.49212 -0.75,-2.39914 0,-1.47736 -10.71667,-12.38507 -23.2464,-23.66081 -2.53222,-2.27879 -5.65019,-6.10379 -6.92882,-8.5 L 392.5,340.5 391.98719,190 c -0.28205,-82.775 -0.61955,-150.580357 -0.75,-150.678571 -0.13046,-0.09822 -0.94433,-0.885715 -1.80862,-1.75 C 388.01349,36.15635 372.40751,36 232.57779,36 126.07023,36 76.346238,35.668058 74.26681,34.943166 c -1.704408,-0.59416 -6.025018,-4.42485 -9.869068,-8.75 C 60.637156,21.961925 54.430952,15.235189 50.606177,11.244865 L 43.652042,3.9897294 234.32604,4.2448647 C 360.93039,4.4142703 425.01025,4.1639833 425.03043,3.5 c 0.0167,-0.55 0.46788,-0.2503484 1.0026,0.6658924 1.15664,1.9819065 0.87423,376.4080876 -0.28303,375.2507976 z"
         id="path1367" />
    </g>
  </g>
</svg>
