<svg width="282" height="95" viewBox="0 0 282 95" fill="none" xmlns="http://www.w3.org/2000/svg">
<rect width="282" height="95" fill="white"/>
<g clip-path="url(#clip0_2_14)">
<path d="M46.8487 74.8619C39.7865 74.8394 36.914 74.7922 36.7987 74.6965C36.5679 74.5049 36.5565 22.8705 36.7873 22.8745C36.9656 22.8776 41.4322 27.113 41.643 27.4789C41.7558 27.6746 41.7897 32.3982 41.793 48.3341C41.7957 61.4875 41.8398 69.0481 41.9149 69.2456L42.0325 69.5549L46.3849 69.5234L50.7373 69.4919L50.7984 53.1119C50.8319 44.1029 50.8725 36.7184 50.8884 36.7019C51.0383 36.5464 51.7015 37.1216 54.7496 40.051C56.926 42.1428 58.3288 43.5815 58.4314 43.8272C58.5589 44.1324 58.5973 44.9872 58.5973 47.5238C58.5973 50.7164 58.6052 50.8276 58.8408 50.9537C59.0021 51.0401 60.2083 51.0768 62.4167 51.0624C65.3965 51.0431 65.7929 51.0633 66.1632 51.2533C66.3909 51.3702 67.2272 52.0927 68.0216 52.8589C76.8215 61.3459 89.8202 73.8875 90.1273 74.1872C90.3418 74.3966 90.5173 74.6197 90.5173 74.683C90.5173 74.8692 82.5324 74.9473 81.6696 74.7695C80.3421 74.4959 79.948 74.1691 77.2879 71.1356C72.323 65.4739 65.5393 58.032 65.287 57.9704C65.1387 57.9341 63.5863 57.9196 61.8373 57.9382L58.6573 57.9719L58.5952 66.3119C58.5611 70.8989 58.5206 74.659 58.5052 74.6676C58.3272 74.768 57.3331 74.9451 57.0741 74.9226C56.8889 74.9065 52.2874 74.8791 46.8487 74.8619ZM93.2868 70.7317C92.5049 69.9838 91.5174 69.0479 91.0924 68.6519C90.2544 67.8711 89.869 67.2029 89.6791 66.2013C89.5998 65.7831 89.5573 58.6189 89.5573 45.6597C89.5573 26.1086 89.5532 25.7581 89.3252 25.6361C89.1677 25.5518 82.3052 25.5119 67.9831 25.5119C53.0969 25.5119 46.7628 25.4734 46.499 25.3815C46.258 25.2974 45.5547 24.6253 44.5214 23.4915C43.6394 22.5237 42.6333 21.4214 42.2855 21.0419C41.9377 20.6624 41.6991 20.3516 41.7552 20.3513C53.0392 20.2924 94.4282 20.3848 94.6509 20.4694L94.9573 20.5859V46.2618C94.9573 63.8634 94.9182 71.9619 94.8328 72.0146C94.7644 72.0569 94.0686 71.4796 93.2868 70.7317ZM155.857 58.7443C149.989 58.1646 145.764 54.8664 143.981 49.4724C143.42 47.7768 143.197 46.3044 143.197 44.2919C143.197 41.4839 143.729 39.1747 144.905 36.8755C146.929 32.9161 150.431 30.3724 154.841 29.6572C156.332 29.4154 159.14 29.4171 160.532 29.6606C165.786 30.5797 169.634 33.8958 171.33 38.9671C171.883 40.6196 172.116 42.1456 172.116 44.1119C172.116 48.6312 170.579 52.4595 167.654 55.225C164.794 57.9293 160.519 59.2048 155.857 58.7443ZM158.78 53.5895C160.218 53.438 161.027 53.2031 162.207 52.5948C164.95 51.1793 166.591 48.0276 166.596 44.1639C166.6 41.14 165.716 38.7821 163.901 36.9689C162.38 35.4489 160.74 34.739 158.344 34.5632C154.32 34.2677 150.936 36.3037 149.486 39.8929C148.883 41.3855 148.778 42.0128 148.778 44.1119C148.777 45.8074 148.817 46.2384 149.055 47.1119C150.094 50.9324 152.734 53.2301 156.499 53.5905C157.004 53.6388 157.471 53.6849 157.537 53.693C157.603 53.7011 158.162 53.6545 158.78 53.5895ZM109.654 58.0042C109.622 57.9204 109.609 51.5879 109.626 43.9319L109.657 30.0119L117.457 30.014L125.257 30.0162L126.331 30.3505C129.654 31.3846 131.811 33.4597 132.776 36.5519C133.023 37.3428 133.057 37.6917 133.057 39.4319C133.057 41.1734 133.023 41.5196 132.776 42.3067C132.282 43.8814 131.738 44.7995 130.671 45.8624C129.641 46.8889 128.401 47.6264 127.04 48.022C126.687 48.1248 126.399 48.2456 126.401 48.2904C126.403 48.3352 128.241 50.4501 130.486 52.9901C133.391 56.2782 134.557 57.6779 134.532 57.8501C134.498 58.0848 134.402 58.0928 131.257 58.122L128.017 58.1522L123.958 53.4695L119.899 48.7869L117.538 48.8194L115.177 48.8519L115.117 53.4719L115.057 58.0919L112.384 58.1242C110.311 58.1492 109.699 58.1223 109.654 58.0042ZM124.975 43.4169C127.25 42.5 128.227 39.745 127.102 37.4196C126.561 36.3025 125.407 35.4935 123.979 35.2294C123.599 35.1591 121.621 35.1218 119.251 35.1402L115.177 35.1719L115.146 39.4684L115.114 43.765L119.706 43.7275C124.159 43.6912 124.318 43.6818 124.975 43.4169ZM183.814 58.0042C183.782 57.9204 183.769 51.6149 183.786 43.9919L183.817 30.1319H186.517H189.217L189.277 35.9519L189.337 41.7719H195.997H202.657L202.717 35.9519L202.777 30.1319L205.409 30.0995C207.434 30.0745 208.062 30.1022 208.137 30.2195C208.19 30.3033 208.234 36.5549 208.234 44.1119C208.234 51.6689 208.19 57.9204 208.137 58.0043C208.062 58.1215 207.434 58.1492 205.409 58.1243L202.777 58.0919L202.717 52.5719L202.657 47.0519L195.968 47.0209L189.28 46.9898L189.248 52.5409L189.217 58.0919L186.544 58.1242C184.471 58.1492 183.858 58.1223 183.814 58.0042ZM220.55 57.9621C220.455 57.714 220.455 30.3898 220.55 30.1417C220.615 29.9719 221.295 29.9519 227 29.9523C232.07 29.9527 233.603 29.9894 234.478 30.1313C239.914 31.0129 243.816 34.5912 245.213 39.9755C245.538 41.2256 245.594 41.6773 245.646 43.4584C245.716 45.8392 245.53 47.3416 244.951 49.0707C243.536 53.2923 240.646 56.1952 236.578 57.4786C234.599 58.1028 233.916 58.1509 227 58.1514C221.295 58.1519 220.615 58.1319 220.55 57.9621ZM234.337 52.4697C235.439 52.1504 236.69 51.4849 237.433 50.8229C240.249 48.3127 240.994 43.3477 239.125 39.5519C238.128 37.5292 236.413 36.1345 234.157 35.5129C233.488 35.3285 232.858 35.2976 229.717 35.2949L226.057 35.2918L226.026 44.0295L225.996 52.7671L229.806 52.7227C232.976 52.6857 233.738 52.6432 234.337 52.4697ZM77.6077 55.45C77.2866 55.3094 76.1135 54.1579 73.8633 51.7747C73.387 51.2702 72.9973 50.7553 72.9973 50.6305C72.9973 50.5012 73.165 50.3057 73.3873 50.176C75.1262 49.1609 76.1173 47.3766 76.1173 45.261C76.1173 42.4903 74.5087 40.363 71.8293 39.5903C71.2507 39.4234 70.2785 39.3793 65.8947 39.3213L60.6522 39.2519L59.4747 38.1118C55.381 34.1479 53.9173 32.6977 53.9173 32.6057C53.9173 32.2154 54.2007 32.2045 62.7657 32.266C69.723 32.3159 71.5023 32.3622 72.6136 32.5219C77.2801 33.1925 80.6483 35.5367 82.6284 39.4919C83.5949 41.4225 83.9797 43.3211 83.8861 45.6977C83.7533 49.0691 82.5648 51.8536 80.3607 53.958C78.8331 55.4163 78.2513 55.7317 77.6077 55.45Z" fill="#BCC5DF"/>
<path d="M81.8773 74.793C80.4234 74.4539 80.067 74.1528 77.0266 70.6964C73.0456 66.1706 65.8332 58.1906 65.5347 57.9816C65.304 57.82 64.7825 57.7919 62.0146 57.7919C59.6474 57.7919 58.7262 57.831 58.6213 57.9359C58.5121 58.0451 58.4773 60.0593 58.4773 66.2673C58.4773 73.5504 58.4565 74.4756 58.2887 74.6433C58.1201 74.8119 56.9777 74.8319 47.5127 74.8319C39.4381 74.8319 36.8911 74.7977 36.7813 74.6879C36.6702 74.5768 36.6373 68.6425 36.6373 48.7079C36.6373 34.4981 36.6778 22.8736 36.7273 22.8757C36.7768 22.8778 37.8973 23.9237 39.2173 25.2L41.6173 27.5206L41.6773 48.3978C41.7275 65.8515 41.7643 69.3076 41.902 69.4734C42.0496 69.6512 42.5128 69.6719 46.3573 69.6719C49.8099 69.6719 50.6741 69.6403 50.7822 69.5101C50.8794 69.393 50.9248 64.8659 50.9469 53.1001C50.9708 40.3411 51.009 36.8519 51.1249 36.8519C51.3764 36.8519 58.1341 43.4202 58.3125 43.838C58.4389 44.1342 58.4773 44.9934 58.4773 47.5252V50.8263L58.7707 51.0186C59.0251 51.1853 59.5074 51.2066 62.4007 51.1796C65.5026 51.1506 65.7677 51.1647 66.1696 51.3801C66.5372 51.5772 83.2607 67.6095 88.7773 73.0535L90.5773 74.8298L87.4454 74.8309C85.7229 74.8315 83.9139 74.8578 83.4254 74.8895C82.9099 74.9229 82.2604 74.8824 81.8773 74.793ZM93.2066 70.5405C92.4748 69.8317 91.5235 68.9232 91.0926 68.5215C90.5012 67.9702 90.2391 67.6172 90.0233 67.0815L89.7373 66.3719L89.6773 46.0354L89.6173 25.6989L89.3173 25.5472C89.0789 25.4265 84.6786 25.395 67.8729 25.3936C52.2741 25.3923 46.6497 25.3559 46.4276 25.2547C46.2028 25.1523 42.4135 21.129 42.0373 20.5933C42.0043 20.5463 41.8963 20.477 41.7973 20.4393C41.6983 20.4017 53.4873 20.3666 67.9952 20.3613C85.9663 20.3549 94.4471 20.3915 94.6052 20.4761C94.8336 20.5983 94.8373 21.0133 94.8373 46.2161C94.8373 66.6295 94.8068 71.8316 94.6873 71.8305C94.6048 71.8298 93.9385 71.2492 93.2066 70.5405ZM156.037 58.6761C149.623 58.069 145.223 54.2977 143.666 48.0719C143.409 47.0455 143.381 46.6687 143.38 44.2919C143.379 41.809 143.398 41.5749 143.706 40.359C145.178 34.5562 149.162 30.7544 154.803 29.7708C156.31 29.508 159.324 29.5327 160.803 29.82C165.119 30.6584 168.386 33.0682 170.343 36.8575C171.513 39.1236 171.997 41.224 171.997 44.035C171.997 46.2009 171.787 47.6192 171.206 49.3766C169.283 55.1894 164.659 58.5047 158.227 58.6818C157.32 58.7068 156.334 58.7042 156.037 58.6761ZM159.065 53.6543C162.654 53.3494 165.334 50.9459 166.382 47.0923C166.615 46.235 166.654 45.8085 166.648 44.1119C166.641 41.7716 166.449 40.8839 165.561 39.0719C165.094 38.1188 164.833 37.7638 163.97 36.9072C162.472 35.4203 161.139 34.793 158.874 34.5078C156.778 34.244 154.326 34.739 152.755 35.7433C150.206 37.3722 148.774 40.092 148.632 43.5719C148.435 48.3985 150.665 52.0745 154.535 53.3016C155.43 53.5856 157.279 53.8312 157.957 53.7561C158.122 53.7379 158.621 53.6921 159.065 53.6543ZM109.717 44.0469V30.062L117.487 30.1015C126.309 30.1463 125.824 30.097 128.077 31.1765C129.196 31.7127 129.46 31.9039 130.435 32.8861C131.367 33.8254 131.614 34.1623 132.075 35.122C132.782 36.5964 132.998 37.6079 132.996 39.4556C132.995 42.2186 132.304 44.0763 130.657 45.7439C129.884 46.5267 129.485 46.8218 128.608 47.2577C128.008 47.5556 127.239 47.8708 126.898 47.9582C126.556 48.0457 126.278 48.1745 126.279 48.2446C126.28 48.3146 128.116 50.4509 130.358 52.9919C132.601 55.5329 134.437 57.7064 134.437 57.8219C134.437 58.0166 134.208 58.0317 131.287 58.03C129.555 58.0291 128.081 57.9885 128.012 57.94C127.943 57.8915 126.124 55.8205 123.97 53.3377C121.816 50.8549 119.964 48.7894 119.855 48.7477C119.474 48.6015 115.295 48.662 115.141 48.8159C115.034 48.9228 114.997 50.1279 114.997 53.4959V58.0319H112.357H109.717V44.0469ZM125.016 43.52C126 43.1273 126.981 42.1422 127.356 41.171C127.569 40.6209 127.634 40.2092 127.635 39.4197C127.636 38.5209 127.59 38.2875 127.275 37.614C127.076 37.1886 126.738 36.6417 126.525 36.3987C126.027 35.8319 124.872 35.2721 123.877 35.1161C122.726 34.9354 115.325 34.9522 115.141 35.1359C115.035 35.2424 114.997 36.3768 114.997 39.4959C114.997 41.8147 115.037 43.7513 115.085 43.7994C115.133 43.8476 117.226 43.8691 119.735 43.8471C124.221 43.8079 124.309 43.8024 125.016 43.52ZM183.877 44.1119V30.1919H186.517H189.157V35.9279C189.157 40.2292 189.193 41.6999 189.301 41.8079C189.509 42.0156 202.486 42.0156 202.693 41.8079C202.801 41.6999 202.837 40.2287 202.837 35.9255V30.1872L205.447 30.2195L208.057 30.2519V44.1119V57.9719L205.447 58.0042L202.837 58.0365L202.835 52.6042C202.834 49.6164 202.79 47.1039 202.738 47.0209C202.662 46.9018 201.22 46.8764 195.929 46.9009L189.217 46.9319L189.186 52.4819L189.155 58.0319H186.516H183.877V44.1119ZM220.653 57.8819C220.621 57.7994 220.609 51.5219 220.626 43.9319L220.657 30.1319L227.017 30.0973C232.43 30.0678 233.554 30.0916 234.562 30.2572C237.533 30.7448 239.911 31.9637 241.838 33.9868C244.356 36.6307 245.58 39.9485 245.572 44.1119C245.565 48.2278 244.358 51.4805 241.873 54.0826C239.925 56.1218 237.598 57.3304 234.643 57.8381C233.701 57.9999 232.46 58.0319 227.112 58.0319C222.101 58.0319 220.697 57.9993 220.653 57.8819ZM234.337 52.5829C237.143 51.7741 239.145 49.7026 239.94 46.7863C240.286 45.5141 240.314 42.7728 239.993 41.5319C239.279 38.7726 237.496 36.6452 235.151 35.755C233.748 35.2226 232.811 35.1206 229.28 35.1161C226.418 35.1124 226.014 35.1349 225.95 35.3017C225.853 35.5553 225.856 52.437 225.953 52.6909C226.022 52.8714 226.375 52.885 229.823 52.84C232.956 52.7991 233.743 52.7543 234.337 52.5829ZM77.4956 55.2935C77.1668 55.0901 74.0685 51.9071 73.307 50.9902L72.99 50.6086L73.3008 50.3902C74.7853 49.3471 75.4029 48.6214 75.8956 47.3411C76.2048 46.5374 76.3183 44.8991 76.1282 43.9841C75.7871 42.3419 74.6131 40.7606 73.2042 40.0455C71.7254 39.2949 71.6293 39.2838 65.9033 39.2044L60.6692 39.1319L57.6833 36.2333C53.9048 32.5655 53.9586 32.6226 54.1234 32.4578C54.2187 32.3624 56.6746 32.3418 62.8766 32.3842C72.0455 32.4469 72.5973 32.4791 74.7973 33.0804C75.9459 33.3943 77.7315 34.2381 78.6795 34.9149C79.5849 35.5613 81.059 37.0918 81.6781 38.0282C82.3464 39.039 83.1626 40.8241 83.4526 41.9094C83.7748 43.1153 83.8934 45.8776 83.6801 47.2089C83.2498 49.8945 82.0429 52.2587 80.236 53.9549C78.7286 55.37 78.1089 55.6727 77.4956 55.2935Z" fill="#A0ADD2"/>
<path d="M82.2906 74.8354C81.4946 74.7152 80.6416 74.3298 79.9905 73.7964C79.7013 73.5594 78.5093 72.2779 77.3415 70.9487C76.1738 69.6194 73.0743 66.1486 70.4537 63.2356C66.9914 59.3872 65.584 57.9028 65.3052 57.8056C65.0624 57.721 63.8127 57.6719 61.9023 57.6719C59.4813 57.6719 58.837 57.7057 58.6502 57.8425C58.4236 58.0086 58.4173 58.2348 58.4173 66.224C58.4173 73.007 58.3886 74.4694 58.2526 74.6334C58.1016 74.8153 57.2036 74.8319 47.4973 74.8319C38.7326 74.8319 36.8834 74.8038 36.7717 74.6692C36.6725 74.5497 36.6447 67.6748 36.667 48.6964L36.6973 22.8861L39.0373 25.1061C40.3243 26.3272 41.4423 27.4715 41.5219 27.649C41.6328 27.8967 41.6677 32.7987 41.6719 48.6951L41.6773 69.4183L41.944 69.6051C42.3248 69.8718 50.3814 69.8869 50.7443 69.6215C50.9727 69.4546 50.9779 69.1294 51.0086 53.1815C51.0268 43.6698 51.0846 36.9119 51.1476 36.9119C51.284 36.9119 57.8287 43.2143 58.1665 43.6709C58.4063 43.9952 58.4178 44.1588 58.4287 47.4163C58.4374 49.9894 58.4777 50.8677 58.5934 51.0072C58.7248 51.1655 59.2337 51.1919 62.1558 51.1919C64.9113 51.1919 65.6474 51.2263 65.9948 51.3715C66.2312 51.4702 67.0285 52.1317 67.7665 52.8415C69.5286 54.536 89.2065 73.5183 89.9586 74.2491L90.54 74.814L87.1986 74.7963C85.3609 74.7866 83.6413 74.812 83.3773 74.8528C83.1133 74.8936 82.6243 74.8857 82.2906 74.8354ZM93.7484 70.9152C93.2583 70.4176 92.3813 69.6036 91.7994 69.1063C90.6531 68.1266 90.2802 67.6329 89.9696 66.6833C89.7851 66.1192 89.7674 64.4135 89.753 45.9007C89.7376 26.0844 89.7332 25.7296 89.5043 25.5622C89.3052 25.4166 86.1997 25.3919 68.1105 25.3919C50.6594 25.3919 46.8819 25.3636 46.5634 25.2305C46.351 25.1418 45.7183 24.5634 45.1573 23.9453C44.5963 23.3272 43.6918 22.3371 43.1473 21.7451C42.6028 21.1532 42.1573 20.6245 42.1573 20.5704C42.1573 20.5162 53.9544 20.4719 68.3731 20.4719C94.169 20.4719 94.5908 20.4756 94.7131 20.704C94.8646 20.9871 94.8897 71.6653 94.7384 71.7588C94.684 71.7925 94.2385 71.4128 93.7484 70.9152ZM154.897 58.4572C150.299 57.7344 146.797 55.2217 144.878 51.2689C142.782 46.9513 142.804 41.5757 144.936 37.1964C147.435 32.0639 152.268 29.3574 158.437 29.6351C162.206 29.8047 165.121 30.9623 167.547 33.2519C169.669 35.2556 171.04 37.7982 171.718 40.9919C172.04 42.5072 172.013 45.9127 171.668 47.4806C170.287 53.7361 166.144 57.6776 160.079 58.504C158.846 58.6719 156.106 58.6472 154.897 58.4572ZM160.456 53.4773C163.382 52.6412 165.318 50.7028 166.274 47.6519C166.673 46.3772 166.882 44.5533 166.777 43.2719C166.424 38.9978 164.139 35.8781 160.537 34.7532C159.332 34.3768 157.042 34.2882 155.673 34.5651C152.866 35.1331 150.87 36.6765 149.612 39.2519C148.814 40.8863 148.548 42.1319 148.559 44.1719C148.567 45.5788 148.619 46.0459 148.882 47.0456C149.378 48.9351 150.021 50.1032 151.233 51.319C152.616 52.7058 153.993 53.4037 155.974 53.7214C157.025 53.8898 159.48 53.7561 160.456 53.4773ZM109.773 57.8819C109.741 57.7994 109.729 51.5219 109.746 43.9319L109.777 30.1319H117.277C124.763 30.1319 124.779 30.1324 125.902 30.4153C129.37 31.2892 131.794 33.6021 132.712 36.9119C133.032 38.0634 133.006 40.8358 132.664 42.0881C132.246 43.6196 131.651 44.6474 130.551 45.7375C129.476 46.8031 128.485 47.3922 127.027 47.8325C126.549 47.977 126.157 48.1472 126.157 48.2107C126.157 48.2742 127.993 50.4058 130.237 52.9476C132.588 55.6109 134.317 57.6672 134.317 57.8005C134.317 58.0229 134.199 58.0319 131.252 58.0319C128.231 58.0319 128.182 58.0279 127.921 57.7619C127.775 57.6134 125.935 55.5063 123.831 53.0795L120.007 48.6671L117.532 48.6995L115.057 48.7319L114.994 53.3519C114.959 55.8929 114.918 57.9854 114.904 58.0019C114.889 58.0184 113.742 58.0319 112.354 58.0319C110.445 58.0319 109.816 57.9953 109.773 57.8819ZM123.637 43.8728C125.444 43.665 126.644 42.8535 127.341 41.3663C127.621 40.7693 127.657 40.5473 127.653 39.4319C127.65 38.3937 127.603 38.0706 127.385 37.597C126.994 36.7447 126.044 35.803 125.164 35.3968L124.417 35.0519H119.737H115.057L115.026 39.4238C115.001 42.8417 115.027 43.8168 115.146 43.892C115.362 44.0291 122.416 44.0132 123.637 43.8728ZM183.933 57.8819C183.901 57.7994 183.889 51.5489 183.906 43.9919L183.937 30.2519L186.487 30.2195C187.89 30.2017 189.05 30.2017 189.064 30.2195C189.079 30.2373 189.12 32.8709 189.154 36.0719L189.217 41.8919H195.997H202.777L202.837 36.0719L202.897 30.2519H205.417H207.937V44.1119V57.9719H205.417H202.897L202.866 52.4582C202.842 48.2303 202.8 46.9225 202.686 46.85C202.513 46.7403 189.631 46.7159 189.347 46.8247C189.178 46.8896 189.157 47.4822 189.157 52.2749C189.157 55.2324 189.125 57.7377 189.085 57.842C189.021 58.0068 188.68 58.0319 186.501 58.0319C184.603 58.0319 183.976 57.9953 183.933 57.8819ZM220.773 57.8819C220.741 57.7994 220.729 51.5219 220.746 43.9319L220.777 30.1319L226.657 30.0958C230.569 30.0718 232.919 30.1059 233.677 30.1978C238.455 30.7764 242 33.1593 243.99 37.1313C245.261 39.6691 245.813 43.1022 245.434 46.1237C245.104 48.7545 244.004 51.4523 242.502 53.3172C240.5 55.8018 237.329 57.4745 233.8 57.9072C232.256 58.0966 220.846 58.0744 220.773 57.8819ZM234.436 52.5884C235.707 52.2035 236.144 51.9887 237.123 51.2682C241.075 48.3571 241.44 41.1021 237.819 37.4409C236.375 35.9813 234.812 35.3135 232.365 35.1106C230.826 34.9831 226.365 34.9506 226.067 35.0647C225.896 35.1302 225.877 36.0279 225.877 43.9847C225.877 48.8506 225.918 52.8731 225.967 52.9234C226.017 52.9738 227.704 52.9912 229.717 52.962C233.263 52.9106 233.41 52.8989 234.436 52.5884ZM76.9329 54.7019C75.9 53.7208 73.1173 50.744 73.1173 50.62C73.1173 50.5628 73.3198 50.4022 73.5673 50.263C74.903 49.5118 76.0163 47.7853 76.2569 46.0919C76.6075 43.624 75.3335 41.0336 73.2505 39.9788C71.8595 39.2744 71.8039 39.2683 66.0756 39.1975L60.7738 39.1319L59.7156 38.1102C54.7742 33.3399 54.1378 32.6958 54.2016 32.5295C54.3423 32.1628 70.7066 32.3734 73.114 32.7729C77.369 33.4789 80.59 35.8039 82.4226 39.4919C83.4045 41.4678 83.7106 42.7695 83.7207 45.0119C83.7293 46.912 83.627 47.6225 83.1165 49.2119C82.372 51.5301 80.9949 53.4329 78.9581 54.9581C78.1204 55.5854 77.8237 55.5479 76.9329 54.7019Z" fill="#7184BB"/>
<path d="M82.4773 74.8315C80.7887 74.5645 80.0934 74.0194 77.1973 70.6919C73.6672 66.6358 65.7542 57.9308 65.4865 57.8088C65.2848 57.7169 64.1047 57.6719 61.8959 57.6719C58.7658 57.6719 58.5997 57.6832 58.4815 57.904C58.3994 58.0574 58.3573 60.8762 58.3573 66.2173C58.3573 73.3372 58.3351 74.3302 58.1705 74.5652L57.9837 74.8319H47.4991C38.1276 74.8319 36.9944 74.8118 36.8259 74.6433C36.6556 74.473 36.6373 71.9555 36.6373 48.7233C36.6373 34.571 36.6677 22.9919 36.7048 22.9919C36.7419 22.9919 37.5652 23.7614 38.5344 24.7019C39.5035 25.6424 40.5802 26.6871 40.9269 27.0236L41.5573 27.6353L41.5591 48.3836C41.5605 64.8681 41.592 69.1935 41.7126 69.4319L41.8643 69.7319L46.3008 69.7636C50.3651 69.7926 50.7499 69.7781 50.8873 69.5906C51.0055 69.4293 51.0373 65.9749 51.0373 53.276C51.0373 42.756 51.0786 37.1405 51.1563 37.0925C51.2217 37.052 51.9372 37.655 52.7463 38.4324C56.8521 42.3775 58.033 43.553 58.1871 43.8485C58.3202 44.1035 58.356 44.8753 58.3566 47.5019C58.3573 50.6878 58.3678 50.8424 58.6009 51.0755C58.8351 51.3097 58.9785 51.3186 62.3117 51.3063C64.8576 51.2969 65.8531 51.333 66.0581 51.4421C66.2117 51.5237 66.8023 52.0274 67.3705 52.5612C68.435 53.5612 87.9671 72.4012 89.5364 73.9417L90.4155 74.8046L86.9564 74.7934C85.0539 74.7872 83.3893 74.8125 83.2573 74.8496C83.1253 74.8866 82.7743 74.8785 82.4773 74.8315ZM94.0573 71.1048C93.7273 70.7658 92.8209 69.9211 92.043 69.2277C90.5323 67.8809 90.1784 67.376 89.9322 66.216C89.8355 65.7599 89.7968 59.9549 89.7955 45.696C89.7945 34.7597 89.754 25.7524 89.7055 25.6798C89.4345 25.274 89.3209 25.2719 67.973 25.2719C55.5324 25.2719 46.7346 25.2269 46.5649 25.1624C46.2656 25.0486 42.2773 20.794 42.2773 20.5886C42.2773 20.5133 51.5437 20.4719 68.3626 20.4719C90.165 20.4719 94.4701 20.4986 94.5829 20.6345C94.6821 20.7541 94.7098 27.5382 94.6876 46.2591L94.6573 71.721L94.0573 71.1048ZM156.337 58.5608C152.426 58.1815 149.665 56.9856 147.394 54.6875C145.468 52.738 144.34 50.5422 143.657 47.4119C143.44 46.4176 143.444 42.2804 143.663 41.1719C144.588 36.4842 147.359 32.773 151.278 30.9713C153.152 30.1099 155.166 29.7116 157.643 29.7123C160.927 29.7133 163.515 30.4248 165.877 31.9759C166.779 32.5682 168.531 34.272 169.196 35.2041C170.432 36.9369 171.317 39.1436 171.701 41.4527C171.953 42.9654 171.89 46.1827 171.582 47.5617C170.259 53.4834 166.474 57.2494 160.772 58.3168C159.783 58.5019 157.197 58.6441 156.337 58.5608ZM158.815 53.8245C162.672 53.4293 165.257 51.251 166.433 47.4059C166.738 46.4068 166.761 46.1811 166.763 44.1719C166.765 41.6845 166.591 40.8174 165.753 39.1236C164.601 36.7967 162.777 35.2934 160.278 34.6105C158.959 34.2501 156.386 34.2485 155.06 34.6073C151.999 35.4356 149.729 37.7827 148.81 41.0715C148.584 41.878 148.547 42.3108 148.55 44.1118C148.554 46.5734 148.733 47.4381 149.612 49.2225C150.977 51.996 153.408 53.5529 156.877 53.8745C157.108 53.8959 157.359 53.9221 157.435 53.9326C157.51 53.9432 158.131 53.8946 158.815 53.8245ZM109.837 44.0519V30.1919H117.084C123.196 30.1919 124.488 30.2216 125.334 30.3821C128.846 31.0478 131.362 33.1586 132.476 36.3719C132.787 37.2675 132.809 37.4646 132.813 39.3119C132.818 41.6125 132.682 42.2844 131.893 43.8613C131.534 44.5781 131.159 45.1 130.598 45.6613C129.622 46.6392 128.726 47.178 127.244 47.6797C126.518 47.9254 126.102 48.1275 126.111 48.2309C126.118 48.3207 127.968 50.4826 130.221 53.035C132.474 55.5874 134.317 57.7288 134.317 57.7938C134.317 57.8682 133.171 57.9119 131.218 57.9119H128.119L124.408 53.6306C122.367 51.2759 120.529 49.1699 120.323 48.9506L119.949 48.5519H117.557C115.857 48.5519 115.124 48.5935 115.021 48.6959C114.914 48.8028 114.877 50.0079 114.877 53.3759V57.9119H112.357H109.837V44.0519ZM124.719 43.7774C126.012 43.3444 127.088 42.3164 127.541 41.0805C127.873 40.1769 127.849 38.6413 127.49 37.7223C126.944 36.3252 125.645 35.2941 124.065 35.0031C123.037 34.8136 115.212 34.8247 115.021 35.0159C114.915 35.1225 114.877 36.2834 114.877 39.4959C114.877 41.8807 114.916 43.8707 114.964 43.9182C115.113 44.0673 124.247 43.9355 124.719 43.7774ZM183.997 44.1119V30.3119H186.517H189.037V36.0479C189.037 40.3492 189.073 41.8199 189.181 41.9279C189.389 42.1357 202.605 42.1357 202.813 41.9279C202.921 41.8199 202.957 40.3487 202.957 36.0454V30.307L205.447 30.3394L207.937 30.3719V44.1119V57.8519L205.447 57.8843L202.957 57.9167L202.955 52.4843C202.954 49.4964 202.91 46.9839 202.858 46.9008C202.782 46.7818 201.316 46.7564 195.929 46.7808L189.097 46.8118L189.066 52.3618L189.035 57.9118H186.516H183.997L183.997 44.1119ZM220.773 57.7619C220.741 57.6794 220.729 51.4559 220.746 43.9319L220.777 30.2519L227.017 30.2172C233.925 30.1789 234.634 30.2308 236.737 30.9289C241.296 32.4417 244.429 36.2767 245.252 41.3519C245.489 42.8188 245.49 45.454 245.254 46.8261C244.234 52.7369 240.231 56.7995 234.514 57.7266C232.994 57.9731 220.865 58.0042 220.773 57.7619ZM234.697 52.6001C237.16 51.7738 238.901 50.1034 239.763 47.7409C240.176 46.6072 240.397 45.3469 240.396 44.1313C240.392 39.7309 238.163 36.4643 234.395 35.3403C233.569 35.0939 233.195 35.0683 229.731 35.0217C226.676 34.9806 225.945 35.0013 225.863 35.1314C225.746 35.3153 225.718 52.509 225.833 52.8107C225.903 52.9908 226.269 53.0051 229.823 52.9657C233.696 52.9227 233.747 52.9188 234.697 52.6001ZM76.6369 54.3419C74.905 52.564 73.2373 50.743 73.2373 50.6299C73.2373 50.5673 73.4436 50.4001 73.6956 50.2585C74.3383 49.8972 75.312 48.8319 75.7032 48.0619C76.1729 47.1373 76.3545 46.354 76.3545 45.2519C76.3545 42.3856 74.7794 40.2956 71.9173 39.364C71.3396 39.176 70.6048 39.1406 66.0216 39.0805L60.7859 39.0119L60.1416 38.4158C58.0806 36.5091 54.1656 32.6235 54.2353 32.5539C54.3574 32.4318 67.6759 32.4613 70.1891 32.5893C73.6366 32.7649 75.8632 33.3375 77.9106 34.5752C80.2867 36.0116 82.1354 38.3791 83.0619 41.1719C84.0049 44.0142 83.8555 47.4077 82.663 50.2352C81.8891 52.0702 80.4142 53.9087 78.9241 54.8957C77.9942 55.5116 77.7092 55.4426 76.6369 54.3419Z" fill="#526AAE"/>
<path d="M37.0699 74.6915C37.1273 74.5986 37.0925 74.5757 36.9669 74.6239C36.8551 74.6668 36.7484 74.6218 36.7072 74.5145C36.6086 74.2575 36.6196 23.4177 36.7183 23.1605C36.7834 22.9907 36.8128 22.9832 36.8683 23.1218C36.9062 23.2166 37.9093 24.228 39.0973 25.3694C40.2853 26.5108 41.3223 27.5902 41.4019 27.7682C41.5128 28.0165 41.5477 32.9192 41.5519 48.8151L41.5573 69.5383L41.824 69.7251C42.0533 69.8857 42.6924 69.9119 46.384 69.9119C50.5173 69.9119 50.6862 69.903 50.9173 69.6719C51.1549 69.4342 51.1573 69.2719 51.1573 53.2859C51.1573 39.515 51.1819 37.1541 51.3245 37.2359C51.6285 37.4103 57.813 43.4039 58.0266 43.7312C58.2132 44.0168 58.2361 44.4191 58.2366 47.4152C58.2371 50.2643 58.2658 50.8192 58.4241 51.0452C58.6097 51.3101 58.6329 51.3119 62.0279 51.3119C64.7671 51.3119 65.529 51.347 65.8683 51.4888C66.1012 51.586 66.7403 52.0855 67.2887 52.5987C68.2955 53.5411 87.833 72.3854 89.3633 73.8903C89.8176 74.337 90.2496 74.7274 90.3233 74.7577C90.397 74.7881 90.1738 74.8172 89.8273 74.8224C89.4808 74.8276 89.1973 74.7779 89.1973 74.7119C89.1973 74.636 88.3373 74.5919 86.8573 74.5919C85.3773 74.5919 84.5173 74.636 84.5173 74.7119C84.5173 74.7843 84.0149 74.8319 83.2502 74.8319C82.436 74.8319 82.0096 74.789 82.0573 74.7119C82.0981 74.6459 82.0338 74.5913 81.9144 74.5907C81.5152 74.5885 80.4567 74.0147 79.8849 73.4905C79.5738 73.2052 78.5366 72.0809 77.5801 70.9919C72.9616 65.7338 65.7657 57.816 65.4925 57.6916C65.0089 57.4712 58.8364 57.4983 58.5302 57.7222C58.3041 57.8875 58.2963 58.1345 58.2649 66.1869C58.2368 73.3637 58.2086 74.4904 58.0555 74.5491C57.9583 74.5865 57.9085 74.6654 57.945 74.7244C57.9839 74.7874 53.6557 74.8319 47.4973 74.8319C39.5002 74.8319 37.0039 74.7983 37.0699 74.6915ZM93.5172 70.4801C92.9561 69.9366 92.0823 69.1269 91.5754 68.6808C90.9107 68.0959 90.5594 67.6776 90.3155 67.1808L89.9773 66.4919L89.9157 46.0319C89.8819 34.7789 89.8414 25.5603 89.8257 25.5461C89.5082 25.2586 88.3875 25.2439 68.306 25.2642C53.5026 25.2791 47.1901 25.2469 46.8477 25.1547C46.435 25.0435 46.0629 24.698 44.3527 22.838L42.3427 20.6519L68.38 20.6211C92.7532 20.5923 94.4269 20.6033 94.5673 20.794C94.6862 20.9555 94.7173 26.2338 94.7173 46.2348C94.7173 60.1152 94.6768 71.4711 94.6273 71.4701C94.5778 71.4692 94.0782 71.0237 93.5172 70.4801ZM155.377 58.3846C148.656 57.4804 144.246 52.8045 143.556 45.85C143.111 41.3689 144.539 36.8994 147.378 33.8853C148.489 32.7057 149.516 31.9573 151.057 31.2046C155.493 29.0386 161.421 29.3009 165.517 31.8446C166.646 32.5455 168.435 34.2625 169.214 35.3913C170.971 37.9407 171.785 40.6515 171.797 43.9919C171.822 51.4523 167.666 56.8922 160.928 58.2173C159.75 58.4489 156.568 58.5448 155.377 58.3846ZM160.417 53.664C160.813 53.557 161.596 53.2458 162.157 52.9723C163.424 52.3549 164.875 50.9704 165.574 49.7119C166.556 47.9437 167.041 45.6879 166.919 43.4591C166.827 41.7794 166.504 40.502 165.824 39.1319C164.233 35.9253 161.529 34.2746 157.837 34.2562C155.66 34.2454 154.193 34.6121 152.633 35.5578C148.992 37.7651 147.397 43.1378 148.972 47.8919C149.463 49.3733 150.148 50.487 151.226 51.5531C152.48 52.7933 153.876 53.4848 155.917 53.8758C156.578 54.0024 159.71 53.855 160.417 53.664ZM109.893 57.7619C109.861 57.6794 109.849 51.4559 109.866 43.9319L109.897 30.2519L116.377 30.2157C124.762 30.169 125.865 30.2798 128.073 31.3899C130.343 32.5309 131.922 34.526 132.587 37.0919C132.899 38.2969 132.873 40.7158 132.534 41.9863C131.767 44.8631 129.948 46.7258 126.955 47.6998C126.428 47.8714 125.977 48.0699 125.954 48.1409C125.93 48.2119 127.779 50.3858 130.061 52.9717C132.343 55.5577 134.177 57.7271 134.137 57.7926C134.091 57.8663 132.958 57.9119 131.174 57.9119H128.286L127.911 57.5145C127.706 57.2959 125.866 55.1899 123.824 52.8345L120.11 48.5519H117.506C115.243 48.5519 114.893 48.5767 114.83 48.7417C114.79 48.8461 114.757 50.9521 114.757 53.4217V57.9119H112.354C110.541 57.9119 109.936 57.875 109.893 57.7619ZM124.255 43.9387C125.286 43.72 125.932 43.3835 126.598 42.7172C127.565 41.7501 128.027 40.2324 127.818 38.7061C127.615 37.2197 126.634 35.9147 125.223 35.2535L124.537 34.9319L119.748 34.8966C115.93 34.8686 114.938 34.8929 114.859 35.0166C114.711 35.2506 114.732 43.6001 114.882 43.8798C115.001 44.1025 115.175 44.1118 119.231 44.1098C122.401 44.1082 123.657 44.0655 124.255 43.9387ZM184.053 57.7619C184.021 57.6794 184.009 51.4829 184.026 43.9919L184.057 30.3719L186.487 30.3394L188.917 30.3069L188.919 36.0394C188.92 39.1922 188.964 41.8398 189.017 41.9229C189.093 42.0419 190.571 42.0673 196.005 42.0429L202.897 42.0119L202.957 36.1919L203.017 30.3719H205.417H207.817V44.1119V57.8519H205.417H203.017L202.957 52.2719L202.897 46.6919L196.057 46.6606C189.733 46.6316 189.206 46.6447 189.067 46.8335C188.952 46.9898 188.917 48.3141 188.917 52.4748V57.9119H186.514C184.701 57.9119 184.096 57.875 184.053 57.7619ZM220.893 57.7619C220.861 57.6794 220.849 51.4559 220.866 43.9319L220.897 30.2519L226.297 30.2151C232.204 30.1748 233.971 30.2718 235.819 30.7377C237.359 31.126 239.58 32.2376 240.733 33.1978C246.282 37.818 247.006 47.6175 242.226 53.4216C240.263 55.8059 237.011 57.4194 233.428 57.787C231.596 57.975 220.966 57.9537 220.893 57.7619ZM233.557 52.9405C236.262 52.4509 238.269 51.0062 239.416 48.724C240.192 47.1818 240.454 45.9516 240.439 43.9319C240.424 42.0462 240.173 40.9603 239.382 39.3719C238.133 36.8617 235.971 35.389 232.957 34.9956C232.367 34.9187 230.647 34.8771 228.877 34.8972L225.817 34.9319L225.786 43.8719C225.769 48.7889 225.781 52.8794 225.812 52.9619C225.896 53.1814 232.325 53.1637 233.557 52.9405ZM77.5138 55.0438C77.0939 54.767 73.3638 50.8206 73.36 50.6492C73.3585 50.5817 73.5461 50.4248 73.7768 50.3005C74.3746 49.9786 75.4348 48.8266 75.8042 48.0977C76.6915 46.3467 76.6787 44.1348 75.771 42.3406C75.0852 40.985 74.0199 40.0651 72.4187 39.4459L71.6173 39.136L66.2616 39.0739L60.9059 39.0119L60.2616 38.4158C59.9072 38.088 58.4023 36.6393 56.9173 35.1966L54.2173 32.5734L62.9773 32.6252C70.4785 32.6696 71.9011 32.7059 72.8773 32.8781C76.7051 33.5534 79.5225 35.2449 81.395 37.9919C84.0205 41.8435 84.3369 46.6952 82.2363 50.8919C81.9059 51.5519 81.3174 52.4753 80.9285 52.9438C80.195 53.8276 78.414 55.2725 78.0599 55.2711C77.9485 55.2706 77.7027 55.1684 77.5138 55.0438Z" fill="#29479A"/>
<path d="M42.3163 74.7419C45.2088 74.724 49.9068 74.724 52.7563 74.7419C55.6058 74.7598 53.2393 74.7745 47.4973 74.7745C41.7553 74.7745 39.4238 74.7598 42.3163 74.7419ZM82.6913 74.7433C83.04 74.719 83.58 74.7192 83.8913 74.7439C84.2026 74.7685 83.9173 74.7884 83.2573 74.7881C82.5973 74.7877 82.3426 74.7676 82.6913 74.7433ZM89.4673 74.746C89.6488 74.7185 89.9458 74.7185 90.1273 74.746C90.3088 74.7735 90.1603 74.796 89.7973 74.796C89.4343 74.796 89.2858 74.7735 89.4673 74.746ZM36.714 74.4121C36.5967 74.1065 36.6395 23.4459 36.7573 23.1719L36.8604 22.9319L36.8655 23.1719C36.8688 23.3225 37.7099 24.2217 39.124 25.5862L41.3773 27.7605L41.4373 48.7102C41.4858 65.669 41.527 69.6896 41.6532 69.8159C41.7742 69.937 42.8102 69.9795 46.2912 70.006L50.7733 70.0401L51.0253 69.7198L51.2773 69.3995V53.3823V37.3651L52.5673 38.5773C53.2768 39.244 54.8163 40.7215 55.9884 41.8607L58.1195 43.9319L58.1184 47.3298C58.1173 50.6787 58.1596 51.0959 58.5252 51.34C58.5979 51.3885 60.1845 51.429 62.0511 51.43C64.7305 51.4315 65.532 51.4683 65.8586 51.6047C66.1995 51.7471 81.2742 66.1571 88.3303 73.0855L89.8034 74.5319L85.8103 74.5316C81.4268 74.5314 81.5321 74.5464 80.384 73.7565C80.0893 73.5537 78.9142 72.3222 77.7727 71.0199C73.3396 65.962 66.0037 57.8879 65.6398 57.666C65.2858 57.4502 65.0142 57.4327 62.0006 57.4323C58.9726 57.4319 58.724 57.448 58.4606 57.6612L58.1773 57.8906L58.1448 66.1456C58.1198 72.5165 58.0787 74.4221 57.9648 74.4945C57.7202 74.6498 37.1457 74.615 37.0494 74.459C36.9904 74.3637 36.9424 74.3665 36.879 74.4691C36.8161 74.5709 36.7686 74.5545 36.714 74.4121ZM93.3295 70.1774C92.6653 69.5364 91.7984 68.7149 91.4033 68.3519C90.9957 67.9776 90.5576 67.4322 90.391 67.0919L90.0973 66.4919L90.0373 46.0513L89.9773 25.6106L89.694 25.3813C89.5382 25.2551 89.2412 25.1491 89.034 25.1458C88.8268 25.1424 79.2883 25.1414 67.8373 25.1435C51.6079 25.1465 46.943 25.1147 46.6805 24.9996C46.4952 24.9183 45.5086 23.9339 44.4881 22.8119L42.6325 20.7719L68.5186 20.7416C82.756 20.7249 94.4482 20.7548 94.5013 20.8079C94.5544 20.861 94.5842 32.2531 94.5676 46.1237L94.5373 71.3429L93.3295 70.1774ZM155.257 58.2544C150.507 57.649 146.664 54.7942 144.803 50.4877C142.566 45.3134 143.48 38.6494 147 34.4654C150.488 30.3208 156.811 28.7656 162.634 30.6203C167.079 32.0363 170.334 35.847 171.417 40.9038C171.766 42.5341 171.788 45.4254 171.463 47.1119C170.253 53.4137 166.004 57.5048 159.88 58.2655C158.694 58.4129 156.458 58.4075 155.257 58.2544ZM160.576 53.719C162.355 53.2071 163.868 52.2392 164.859 50.9782C167.375 47.7757 167.772 42.6555 165.803 38.8067C165.347 37.9152 165.027 37.4864 164.205 36.6659C162.478 34.9422 160.879 34.2823 158.187 34.1827C154.954 34.0631 152.699 34.9061 150.819 36.9365C149.876 37.9554 148.963 39.7258 148.573 41.2919C148.17 42.9088 148.2 45.5042 148.639 47.1656C149.651 50.9868 152.059 53.2775 155.777 53.9569C156.782 54.1406 159.595 54.0012 160.576 53.719ZM109.957 44.0444V30.297L117.367 30.3398L124.777 30.3826L125.944 30.6995C128.711 31.451 130.736 33.0628 131.855 35.4045C132.52 36.7973 132.684 37.5987 132.676 39.4319C132.664 42.183 132.002 43.9426 130.371 45.5559C129.337 46.5786 128.416 47.1171 126.877 47.597C126.221 47.8018 125.844 47.9827 125.82 48.1047C125.8 48.2089 126.177 48.7437 126.659 49.293C127.141 49.8424 128.939 51.8859 130.656 53.8341C132.373 55.7823 133.851 57.4698 133.942 57.5841C134.097 57.78 133.939 57.7916 131.182 57.7864L128.257 57.781L124.235 53.1364L120.213 48.4919L117.576 48.4594C115.202 48.4303 114.923 48.4476 114.787 48.6324C114.674 48.7881 114.637 49.92 114.637 53.3148V57.7919H112.297H109.957V44.0444ZM123.997 44.1076C125.618 43.8533 126.916 42.906 127.578 41.4929C127.866 40.8792 127.897 40.6754 127.897 39.4319C127.897 38.1726 127.869 37.9937 127.571 37.3874C127.055 36.3393 126.494 35.7728 125.467 35.2652L124.55 34.8119L119.747 34.7754C115.291 34.7416 114.932 34.7541 114.79 34.9483C114.601 35.2079 114.568 43.4328 114.754 43.9241L114.871 44.2319L119.044 44.2309C121.339 44.2304 123.568 44.175 123.997 44.1076ZM184.117 44.1118V30.4319H186.457H188.797V36.1089C188.797 40.4617 188.832 41.8336 188.947 41.9902C189.086 42.1791 189.621 42.1921 196.057 42.1632L203.017 42.1319L203.048 36.2819L203.079 30.4319H205.418H207.757V44.1119V57.7919H205.417H203.077V52.2247C203.077 47.2589 203.057 46.6497 202.887 46.5847C202.783 46.5446 199.623 46.5119 195.864 46.5119H189.031L188.914 46.8197C188.845 47.0029 188.797 49.2855 188.797 52.4597V57.7919H186.457H184.117L184.117 44.1118ZM220.957 44.0518V30.3119H226.662C229.925 30.3119 232.861 30.367 233.521 30.4406C239.671 31.1263 243.763 34.9181 245.037 41.1119C245.328 42.5275 245.327 45.5751 245.034 47.0519C243.829 53.1389 239.663 56.9782 233.52 57.6632C232.86 57.7368 229.924 57.7919 226.662 57.7919H220.957V44.0518ZM234.577 52.8251C238.143 51.7422 240.183 49.0412 240.577 44.8806C240.675 43.852 240.465 41.9602 240.135 40.8799C239.449 38.6413 237.854 36.6464 236.063 35.7881C234.309 34.9477 233.686 34.8484 229.752 34.7824C227.824 34.7501 226.109 34.758 225.942 34.8L225.637 34.8764V43.9742C225.637 48.9779 225.678 53.1126 225.727 53.1625C225.777 53.2123 227.545 53.2306 229.657 53.2031C233.427 53.154 233.517 53.1471 234.577 52.8251ZM75.9577 53.3251C74.979 52.3168 74.0222 51.2973 73.8316 51.0595L73.4851 50.6272L74.0767 50.2439C76.4606 48.6991 77.2681 45.1847 75.8857 42.3698C75.1395 40.8501 74.174 40.0038 72.4116 39.3246L71.6173 39.0184L66.2632 38.9552L60.9092 38.8919L57.7558 35.8319L54.6025 32.7719L55.1299 32.7321C56.5301 32.6265 71.7999 32.8123 72.6186 32.9448C75.6535 33.4361 77.7322 34.3935 79.6 36.16C83.3275 39.6855 84.4888 44.8597 82.6511 49.7543C82.2129 50.9216 81.3686 52.2854 80.5263 53.1866C79.6249 54.1512 78.3368 55.1506 77.9894 55.1552C77.8196 55.1574 77.1558 54.5594 75.9577 53.3251Z" fill="#1F4295"/>
</g>
<defs>
<clipPath id="clip0_2_14">
<rect width="218.52" height="54.72" fill="white" transform="translate(32 20)"/>
</clipPath>
</defs>
</svg>
