<?xml version="1.0" encoding="UTF-8" standalone="no"?>
<!-- Created with Inkscape (http://www.inkscape.org/) -->

<svg
   version="1.1"
   id="svg2"
   width="218.52"
   height="54.720001"
   viewBox="0 0 218.52 54.720001"
   sodipodi:docname="ROHD_blue.svg"
   inkscape:version="1.2.2 (732a01da63, 2022-12-09)"
   xmlns:inkscape="http://www.inkscape.org/namespaces/inkscape"
   xmlns:sodipodi="http://sodipodi.sourceforge.net/DTD/sodipodi-0.dtd"
   xmlns="http://www.w3.org/2000/svg"
   xmlns:svg="http://www.w3.org/2000/svg">
  <defs
     id="defs6" />
  <sodipodi:namedview
     id="namedview4"
     pagecolor="#ffffff"
     bordercolor="#000000"
     borderopacity="0.25"
     inkscape:showpageshadow="2"
     inkscape:pageopacity="0.0"
     inkscape:pagecheckerboard="0"
     inkscape:deskcolor="#d1d1d1"
     showgrid="false"
     inkscape:zoom="4.3128654"
     inkscape:cx="108.51254"
     inkscape:cy="27.360001"
     inkscape:window-width="1920"
     inkscape:window-height="1017"
     inkscape:window-x="1912"
     inkscape:window-y="-8"
     inkscape:window-maximized="1"
     inkscape:current-layer="g8" />
  <g
     inkscape:groupmode="layer"
     inkscape:label="Image"
     id="g8">
    <g
       id="g847"
       transform="translate(4.6372882,0.23186401)">
      <path
         style="fill:#bcc5df;stroke-width:0.12"
         d="M 10.211451,54.630007 C 3.1492594,54.607575 0.27675502,54.5603 0.16145051,54.464606 -0.06936683,54.273045 -0.08077589,2.6386025 0.15,2.6425953 c 0.17829222,0.00309 4.6449008,4.2385487 4.8557478,4.6044654 0.1127364,0.1956496 0.1467108,4.9192533 0.15,20.8551283 0.00271,13.153407 0.046771,20.714021 0.1218522,20.9115 L 5.3952,49.323 9.7476,49.2915 14.1,49.26 14.16107,32.88 c 0.03359,-9.009001 0.07409,-16.393501 0.09,-16.410001 0.149956,-0.15551 0.813135,0.419726 3.861199,3.349175 2.176469,2.091772 3.579191,3.530413 3.681864,3.776146 0.127507,0.305168 0.165865,1.160037 0.165865,3.696603 0,3.192593 0.0079,3.30386 0.243492,3.429946 0.161359,0.08636 1.367557,0.123015 3.575898,0.108676 2.979803,-0.01935 3.37622,8.4e-4 3.746507,0.190922 0.227756,0.116908 1.064058,0.839404 1.858447,1.605546 8.799914,8.487012 21.798581,21.028583 22.105656,21.328315 0.2145,0.20937 0.39,0.432494 0.39,0.495832 0,0.186221 -7.98492,0.264249 -8.847665,0.08646 C 43.704834,54.264054 43.31075,53.937229 40.650571,50.903694 35.685703,45.242008 28.902024,37.800176 28.649704,37.738499 28.501367,37.702241 26.949,37.687745 25.2,37.706288 l -3.18,0.03371 -0.06206,8.34 c -0.03413,4.587 -0.07463,8.34709 -0.09,8.355755 -0.178028,0.100364 -1.17214,0.27747 -1.431082,0.254952 -0.185274,-0.01611 -4.786709,-0.04343 -10.225411,-0.0607 z m 46.438013,-4.130166 c -0.781885,-0.747912 -1.769355,-1.68384 -2.194377,-2.07984 -0.838012,-0.780789 -1.22334,-1.448926 -1.413299,-2.450573 C 52.962475,45.551215 52.92,38.387029 52.92,25.427843 52.92,5.8767054 52.915938,5.5262702 52.687889,5.4042222 52.530412,5.3199432 45.667958,5.2800001 31.345795,5.2800001 16.459651,5.2800001 10.125529,5.2415547 9.8617508,5.1496011 9.6207192,5.065577 8.9173868,4.3934203 7.8840899,3.2596011 7.0021109,2.2918205 5.9959626,1.1895 5.6482048,0.81000001 5.3004469,0.43050001 5.0618363,0.11976001 5.1179588,0.11946668 16.401924,0.06049088 57.790898,0.15289554 58.013585,0.237561 L 58.32,0.3540598 V 26.029948 c 0,17.601572 -0.03914,25.700079 -0.124463,25.752811 -0.06845,0.04231 -0.764187,-0.535006 -1.546073,-1.282918 z M 119.22,38.51246 C 113.35193,37.93276 109.12718,34.634563 107.34339,29.240579 106.78265,27.54497 106.56,26.072562 106.56,24.06 c 0,-2.807962 0.53159,-5.117194 1.70725,-7.416339 2.02466,-3.959446 5.52609,-6.503174 9.93605,-7.2183524 1.49092,-0.2417892 4.29908,-0.240097 5.69135,0.00343 5.25432,0.9190564 9.10214,4.2352274 10.79851,9.3064804 0.55278,1.652519 0.78588,3.178513 0.78588,5.144781 0,4.519305 -1.53707,8.347587 -4.46196,11.113129 -2.86007,2.704256 -7.13582,3.979811 -11.79708,3.519331 z m 2.92267,-5.15487 c 1.43833,-0.151501 2.24742,-0.386361 3.42658,-0.994665 2.74377,-1.415454 4.38458,-4.567191 4.38918,-8.430885 0.004,-3.023927 -0.87943,-5.381834 -2.69448,-7.194994 -1.5216,-1.520034 -3.16135,-2.229882 -5.55726,-2.405755 -4.02436,-0.295409 -7.40801,1.740556 -8.85776,5.329775 -0.60289,1.492614 -0.70824,2.11986 -0.7086,4.218934 -2.4e-4,1.695563 0.0395,2.126529 0.27709,3 1.03911,3.820552 3.6795,6.11828 7.44474,6.478599 0.50481,0.04831 0.97184,0.09445 1.03784,0.102538 0.066,0.0081 0.6252,-0.03851 1.24267,-0.103547 z M 73.01623,37.772305 C 72.984326,37.688537 72.972124,31.356001 72.989112,23.7 L 73.02,9.7800002 l 7.8,0.00218 7.8,0.00218 1.074079,0.3342738 c 3.322777,1.034112 5.47938,3.109225 6.444898,6.20137 0.246979,0.790972 0.281023,1.139859 0.281023,2.88 0,1.741532 -0.03384,2.087772 -0.280997,2.874831 -0.494492,1.57471 -1.037973,2.492824 -2.104831,3.555741 -1.030247,1.026439 -2.270334,1.763927 -3.631344,2.159582 -0.353555,0.102781 -0.641062,0.223545 -0.638903,0.268361 0.0022,0.04482 1.840251,2.159678 4.084649,4.699693 2.905476,3.288164 4.070746,4.687845 4.046076,4.86 -0.03363,0.234701 -0.129659,0.242676 -3.27465,0.271956 l -3.24,0.03017 -4.059389,-4.682671 -4.059387,-4.68267 -2.360613,0.03251 -2.360611,0.03251 -0.06,4.62 -0.06,4.62 -2.672882,0.0323 c -2.073227,0.02506 -2.685896,-0.0019 -2.730888,-0.12 z M 88.337651,23.185078 c 2.275481,-0.916978 3.252438,-3.67194 2.126748,-5.997306 -0.540775,-1.117092 -1.694419,-1.926187 -3.122989,-2.190273 -0.379935,-0.07023 -2.35758,-0.10752 -4.727303,-0.08912 L 78.54,14.94 l -0.03152,4.296557 -0.03152,4.296557 4.591523,-0.03748 c 4.453638,-0.03635 4.611873,-0.04568 5.269174,-0.310559 z m 58.838579,14.587227 c -0.0319,-0.08377 -0.0441,-6.389304 -0.0271,-14.012305 L 147.18,9.9000002 h 2.7 2.7 l 0.06,5.8199998 0.06,5.82 h 6.66 6.66 l 0.06,-5.82 0.06,-5.8199998 2.63143,-0.0324 c 2.02507,-0.024934 2.65373,0.00272 2.72817,0.12 0.0532,0.08382 0.0967,6.3353998 0.0967,13.8923998 0,7.557001 -0.0435,13.808581 -0.0967,13.892401 -0.0744,0.117282 -0.7031,0.144933 -2.72817,0.12 l -2.63143,-0.0324 -0.06,-5.52 -0.06,-5.520001 -6.6888,-0.03101 -6.6888,-0.03101 -0.0312,5.551007 -0.0312,5.551007 -2.67288,0.0323 c -2.07323,0.02506 -2.6859,-0.0019 -2.73089,-0.12 z m 36.73661,-0.04212 c -0.0952,-0.248099 -0.0952,-27.572272 0,-27.8203714 0.0652,-0.1697995 0.74527,-0.1897635 6.45,-0.1893319 5.06975,3.84e-4 6.6028,0.037078 7.47775,0.1789856 5.43568,0.8816017 9.33789,4.4598677 10.73539,9.8442037 0.32446,1.250062 0.38061,1.701731 0.43295,3.482891 0.07,2.380812 -0.11623,3.883157 -0.69554,5.61229 -1.41435,4.221544 -4.30518,7.124486 -8.3728,8.407855 -1.97858,0.624259 -2.66226,0.672287 -9.57775,0.67281 -5.70473,4.8e-4 -6.38484,-0.01953 -6.45,-0.189332 z M 197.7,32.237792 c 1.10164,-0.319239 2.35258,-0.984748 3.09529,-1.646715 2.8164,-2.51022 3.56173,-7.475239 1.69197,-11.271077 -0.99635,-2.022698 -2.71161,-3.417391 -4.96726,-4.038939 -0.66938,-0.184449 -1.29906,-0.215366 -4.44,-0.217996 l -3.66,-0.0031 -0.0308,8.737625 -0.0308,8.737625 3.81079,-0.04441 c 3.16996,-0.03694 3.93186,-0.07949 4.53078,-0.253052 z M 40.970448,35.21812 C 40.649291,35.077544 39.476158,33.926069 37.225985,31.54279 36.749693,31.038325 36.36,30.523467 36.36,30.398663 c 0,-0.12931 0.167755,-0.32484 0.39,-0.454569 1.738936,-1.01506 2.73,-2.799322 2.73,-4.914953 0,-2.770671 -1.608584,-4.897971 -4.287984,-5.67072 C 34.61336,19.191534 33.641206,19.147468 29.25745,19.08942 L 24.014898,19.02 22.83745,17.879903 C 18.743716,13.916033 17.28,12.465843 17.28,12.373805 c 0,-0.390254 0.283404,-0.401133 8.848442,-0.33966 6.957286,0.04993 8.73661,0.09617 9.84782,0.255866 4.66656,0.67067 8.034756,3.01482 10.014838,6.969989 0.966526,1.930612 1.351313,3.829277 1.257688,6.205852 -0.132814,3.371346 -1.321231,6.155881 -3.525408,8.260242 -1.527532,1.458358 -2.109397,1.773715 -2.752932,1.492026 z"
         id="path861" />
      <path
         style="fill:#a0add2;stroke-width:0.12"
         d="M 45.24,54.561159 C 43.786123,54.221991 43.429676,53.920953 40.38933,50.464521 36.408324,45.938697 29.195905,37.958758 28.897436,37.749703 c -0.230713,-0.161597 -0.752228,-0.189702 -3.520137,-0.189702 -2.367233,0 -3.28839,0.03909 -3.393299,0.144 -0.109186,0.109185 -0.144,2.123429 -0.144,8.331428 0,7.283117 -0.02083,8.208257 -0.188572,8.376 -0.168578,0.16858 -1.311064,0.188572 -10.775999,0.188572 -8.074667,0 -10.62160517,-0.03418 -10.731429,-0.144 C 0.03289178,54.344893 0,48.410667 0,28.476001 0,14.2662 0.0405,2.6417144 0.09,2.6438096 c 0.0495,0.0021 1.17,1.0480537 2.49,2.3243523 L 4.98,7.2887047 5.04,28.165928 C 5.090161,45.619609 5.127007,49.07569 5.2646934,49.241576 5.4122646,49.419372 5.8754546,49.440001 9.72,49.440001 c 3.45264,0 4.316834,-0.0316 4.424874,-0.161773 0.09722,-0.117146 0.142656,-4.644192 0.164693,-16.410001 C 14.333465,20.109226 14.371688,16.62 14.487564,16.62 c 0.251502,0 7.00927,6.568354 7.187608,6.986146 C 21.80159,23.90231 21.84,24.761536 21.84,27.29338 v 3.301087 l 0.293376,0.192228 c 0.254394,0.166686 0.736712,0.188084 3.63,0.161042 3.101905,-0.02899 3.367037,-0.01488 3.768948,0.200539 0.367608,0.197036 17.091072,16.229328 22.607676,21.673312 l 1.8,1.776305 -3.131894,0.0011 c -1.722543,6e-4 -3.531543,0.02696 -4.02,0.05862 -0.515459,0.03341 -1.16504,-0.007 -1.548106,-0.0964 z m 11.329344,-4.252544 c -0.731861,-0.708738 -1.683174,-1.617277 -2.11403,-2.018976 -0.591366,-0.551347 -0.853468,-0.904299 -1.069344,-1.44 L 53.1,46.140001 53.04,25.803534 52.98,5.4670671 52.68,5.3153027 C 52.441559,5.1946794 48.041287,5.1631752 31.235646,5.1617691 15.636834,5.160464 10.012354,5.1240331 9.7903098,5.0228631 9.5654904,4.9204285 5.7762259,0.89715302 5.4,0.36142394 5.367,0.3144334 5.259,0.24515276 5.16,0.20746698 5.061,0.1697812 16.85005,0.13468421 31.357889,0.12947369 c 17.971107,-0.006454 26.451864,0.0301166 26.61,0.11474837 C 58.196257,0.36644117 58.2,0.78146795 58.2,25.984222 c 0,20.413362 -0.03046,25.615497 -0.15,25.614393 -0.0825,-7.2e-4 -0.748795,-0.581262 -1.480656,-1.29 z M 119.4,38.444223 c -6.41454,-0.607109 -10.81426,-4.378352 -12.3714,-10.604222 -0.2567,-1.026358 -0.28525,-1.403173 -0.2864,-3.780001 -10e-4,-2.482828 0.0182,-2.71697 0.32663,-3.932872 1.47182,-5.80283 5.45604,-9.604575 11.09638,-10.5881681 1.50712,-0.2628198 4.52169,-0.2381293 6.00053,0.049147 4.31593,0.8383951 7.58261,3.2482661 9.5397,7.0375621 1.17036,2.266042 1.65456,4.366469 1.65456,7.17744 0,2.165884 -0.21016,3.584181 -0.79148,5.341673 -1.92272,5.812727 -6.54677,9.128056 -12.97834,9.30512 -0.9076,0.02499 -1.89318,0.02243 -2.19018,-0.0057 z m 3.02728,-5.021756 c 3.58936,-0.304977 6.26967,-2.708484 7.31778,-6.562071 0.23314,-0.857224 0.27117,-1.283765 0.26576,-2.980396 -0.007,-2.340218 -0.199,-3.227974 -1.08732,-5.04 -0.46722,-0.953046 -0.72816,-1.308044 -1.59119,-2.16469 -1.49791,-1.486856 -2.83021,-2.114201 -5.09546,-2.39933 -2.0961,-0.263838 -4.54777,0.231144 -6.11912,1.235427 -2.54865,1.628897 -3.98107,4.348745 -4.12294,7.828593 -0.19677,4.826655 2.03323,8.50264 5.90245,9.729721 0.8956,0.284029 2.74488,0.529622 3.42276,0.454557 0.165,-0.01827 0.66328,-0.06409 1.10728,-0.101811 z M 73.08,23.81507 V 9.8301375 l 7.77,0.039473 c 8.821946,0.044817 8.336766,-0.00444 10.59,1.0750695 1.119058,0.536132 1.382782,0.727365 2.357641,1.709583 0.932217,0.939254 1.179361,1.276214 1.639878,2.235833 0.707574,1.474435 0.922692,2.48593 0.92164,4.333594 -0.0016,2.763064 -0.692586,4.620723 -2.339159,6.288387 -0.772812,0.782711 -1.172459,1.077881 -2.049604,1.513793 -0.599281,0.297823 -1.368781,0.613048 -1.71,0.7005 -0.341217,0.08745 -0.619698,0.216294 -0.618843,0.286317 8.4e-4,0.07002 1.83666,2.206314 4.079568,4.747314 2.242909,2.541 4.078211,4.7145 4.078448,4.83 3.6e-4,0.194724 -0.228707,0.209866 -3.149569,0.208162 -1.7325,-9.6e-4 -3.206357,-0.04151 -3.275237,-0.09 -0.06888,-0.04849 -1.887857,-2.119533 -4.042169,-4.602319 -2.154313,-2.482785 -4.005872,-4.548285 -4.114578,-4.59 -0.380913,-0.146169 -4.560114,-0.08575 -4.714016,0.06816 -0.106921,0.106921 -0.144,1.311999 -0.144,4.68 v 4.536 h -2.64 -2.64 z m 15.299116,-0.5269 c 0.983277,-0.392701 1.964455,-1.377818 2.33966,-2.349054 0.212507,-0.550084 0.278123,-0.961742 0.279151,-1.751324 0.0012,-0.898806 -0.04543,-1.132172 -0.360607,-1.805684 C 90.438246,16.956696 90.100789,16.4098 89.887417,16.166782 89.38976,15.599982 88.234428,15.040271 87.24,14.884217 86.088907,14.703579 78.687661,14.720339 78.504,14.904 c -0.106535,0.106535 -0.144,1.240889 -0.144,4.36 0,2.318801 0.0394,4.255404 0.08756,4.303565 0.04816,0.04816 2.14066,0.06962 4.65,0.04768 4.486001,-0.03921 4.574484,-0.04469 5.281552,-0.327079 z M 147.24,23.88 V 9.9600002 h 2.64 2.64 V 15.696 c 0,4.301333 0.036,5.772017 0.144,5.88 0.20777,0.207771 13.18423,0.207771 13.392,0 0.10799,-0.107984 0.144,-1.579186 0.144,-5.88234 V 9.9553196 l 2.61,0.03234 2.61,0.03234 v 13.86 13.860001 l -2.61,0.03234 -2.61,0.03234 -0.002,-5.43234 c -0.001,-2.987787 -0.045,-5.500299 -0.0977,-5.583358 -0.0756,-0.119026 -1.51782,-0.144447 -6.80816,-0.12 L 152.58,26.7 l -0.0312,5.550001 -0.0312,5.55 h -2.6388 -2.6388 z m 36.77534,13.770001 c -0.0314,-0.0825 -0.0432,-6.36 -0.0262,-13.950001 L 184.02,9.9000002 190.38,9.865397 c 5.41315,-0.029452 6.53644,-0.00564 7.54513,0.159939 2.97041,0.4876 5.34809,1.706521 7.27509,3.729574 2.5184,2.643953 3.74216,5.961755 3.73461,10.12509 -0.007,4.115911 -1.21431,7.368669 -3.69937,9.970688 -1.94753,2.039193 -4.27436,3.247884 -7.22977,3.755552 -0.94211,0.161832 -2.18302,0.193761 -7.5306,0.193761 -5.01163,0 -6.41503,-0.03259 -6.45975,-0.15 z M 197.7,32.351053 c 2.80524,-0.808824 4.8073,-2.880339 5.60228,-5.796646 0.3468,-1.272184 0.37484,-4.013469 0.0537,-5.254407 -0.71399,-2.759266 -2.49726,-4.886673 -4.8424,-5.776883 -1.40253,-0.532398 -2.3397,-0.634392 -5.87077,-0.63893 -2.8619,-0.0037 -3.266,0.01885 -3.33,0.185628 -0.0973,0.253646 -0.0941,17.135278 0.003,17.389182 0.0693,0.180504 0.42234,0.194111 3.87,0.149138 3.13272,-0.04086 3.91924,-0.08566 4.51378,-0.257082 z M 40.858282,35.061585 C 40.529474,34.858276 37.43123,31.675221 36.669704,30.75835 l -0.316988,-0.381651 0.310752,-0.218349 c 1.484579,-1.043137 2.102165,-1.768859 2.59479,-3.049121 0.309235,-0.803655 0.422788,-2.441953 0.23268,-3.357027 -0.341155,-1.64214 -1.51513,-3.223424 -2.924058,-3.938559 -1.478821,-0.750609 -1.57484,-0.761671 -7.300927,-0.841068 L 24.031904,18.9 21.045953,16.001458 c -3.778458,-3.667849 -3.724641,-3.61077 -3.559846,-3.775565 0.09534,-0.09534 2.55118,-0.11599 8.753208,-0.07359 9.168851,0.06268 9.720696,0.09491 11.920685,0.696227 1.148586,0.313939 2.934162,1.157719 3.882182,1.834541 0.905378,0.646377 2.379492,2.176829 2.998624,3.113225 0.668328,1.010802 1.48447,2.795926 1.774448,3.881203 0.322215,1.205922 0.440817,3.968263 0.227537,5.299554 -0.430245,2.6856 -1.637223,5.049743 -3.444057,6.745975 -1.507409,1.415135 -2.127087,1.717813 -2.740452,1.338557 z"
         id="path859" />
      <path
         style="fill:#7184bb;stroke-width:0.12"
         d="m 45.653371,54.603493 c -0.796025,-0.120179 -1.649083,-0.505513 -2.300114,-1.038985 -0.289224,-0.236997 -1.481271,-1.518465 -2.648992,-2.847706 -1.167721,-1.32924 -4.267269,-4.800107 -6.887885,-7.713036 -3.462274,-3.848471 -4.869648,-5.3328 -5.148475,-5.43 -0.242803,-0.08464 -1.492466,-0.133765 -3.402876,-0.133765 -2.420996,0 -3.065307,0.03381 -3.252093,0.170652 C 21.786287,37.776699 21.78,38.002921 21.78,45.992148 c 0,6.78294 -0.02864,8.245364 -0.164693,8.409348 -0.150942,0.181929 -1.049016,0.198505 -10.755307,0.198505 -8.7646338,0 -10.61388374,-0.02804 -10.72558115,-0.162626 C 0.03517618,54.317795 0.00746446,47.442926 0.02972549,28.464493 L 0.06,2.6542376 2.4,4.8742722 c 1.287,1.221019 2.4050644,2.3653155 2.4845875,2.5428811 0.1109103,0.2476494 0.1458483,5.1496877 0.15,21.0460437 L 5.04,49.186392 5.3067007,49.373197 c 0.380862,0.266766 8.4374233,0.28186 8.8003633,0.01649 0.228329,-0.166948 0.233554,-0.492102 0.264213,-16.440001 0.01828,-9.511779 0.07604,-16.269683 0.13904,-16.269683 0.136444,0 6.681091,6.302403 7.018878,6.759081 0.239854,0.324275 0.251305,0.487809 0.262253,3.745351 0.0087,2.573145 0.04893,3.451433 0.164694,3.59092 0.131352,0.158269 0.640285,0.184649 3.562405,0.184649 2.75547,0 3.491579,0.03444 3.83899,0.179593 0.236405,0.09878 1.033659,0.760277 1.771677,1.47 1.762101,1.694545 21.440015,20.676831 22.192144,21.407635 l 0.581358,0.564876 -3.341358,-0.01765 c -1.837747,-0.0097 -3.557358,0.01571 -3.821358,0.05649 -0.264,0.04078 -0.752983,0.03292 -1.086629,-0.01745 z m 11.457715,-3.92017 C 56.620988,50.185697 55.743976,49.371719 55.162169,48.874484 54.01583,47.89478 53.642956,47.401012 53.332357,46.451413 53.147857,45.887335 53.130073,44.181628 53.11568,25.668827 53.100274,5.8525633 53.095937,5.4977829 52.867064,5.3303775 52.667942,5.1847323 49.562376,5.1600001 31.47321,5.1600001 14.022102,5.1600001 10.244595,5.1317133 9.9261457,4.998651 9.7137656,4.9099089 9.081,4.3315563 8.52,3.7134227 7.959,3.0952893 7.0545,2.1052209 6.51,1.5132709 5.9655,0.92132091 5.52,0.3926736 5.52,0.33849909 5.52,0.2843246 17.3171,0.24 31.735778,0.24 c 25.795956,0 26.217767,0.003717 26.34,0.23211103 0.15155,0.28317297 0.176672,50.96131097 0.02531,51.05485797 -0.0544,0.03362 -0.499902,-0.346018 -0.99,-0.843646 z M 118.26,38.225349 c -4.59802,-0.722779 -8.10034,-3.235525 -10.01921,-7.188306 -2.09598,-4.317622 -2.07373,-9.693181 0.0582,-14.072465 2.49868,-5.132513 7.33127,-7.8390576 13.50097,-7.561356 3.76842,0.1696188 6.68395,1.327182 9.10949,3.616778 2.12268,2.003707 3.49298,4.546289 4.17139,7.74 0.32189,1.51532 0.29534,4.9208 -0.0506,6.488786 -1.38009,6.255452 -5.52385,10.196976 -11.58898,11.023323 -1.23248,0.167921 -3.97293,0.143189 -5.18131,-0.04676 z m 5.55852,-4.979939 c 2.92645,-0.836023 4.86239,-2.774495 5.81778,-5.825409 0.39916,-1.274662 0.60859,-3.098525 0.50294,-4.380001 -0.35232,-4.274049 -2.63725,-7.393739 -6.23924,-8.518656 -1.2053,-0.376421 -3.49517,-0.464993 -4.86378,-0.188129 -2.80785,0.568013 -4.80392,2.111462 -6.06122,4.686785 -0.79794,1.634426 -1.0646,2.880017 -1.05329,4.92 0.008,1.406945 0.0603,1.874016 0.3229,2.873706 0.49639,1.88953 1.13909,3.057626 2.3513,4.273411 1.3827,1.386786 2.76006,2.084685 4.74128,2.402385 1.05052,0.168457 3.50525,0.03475 4.48133,-0.244092 z m -50.683176,4.404591 c -0.03142,-0.0825 -0.04322,-6.36 -0.02623,-13.950001 L 73.14,9.9000002 h 7.5 c 7.485683,0 7.502147,5.4e-4 8.62464,0.2834348 3.467611,0.873918 5.892247,3.186824 6.8104,6.496565 0.31945,1.15155 0.293678,3.92398 -0.04812,5.176278 -0.417986,1.531454 -1.013038,2.559282 -2.11275,3.649348 -1.074998,1.065569 -2.066076,1.654741 -3.524172,2.095039 -0.4785,0.144491 -0.87,0.314664 -0.87,0.378161 0,0.0635 1.836,2.195124 4.08,4.736951 2.35119,2.663243 4.08,4.719536 4.08,4.852862 0,0.222444 -0.118156,0.231362 -3.065454,0.231362 -3.020372,0 -3.069358,-0.004 -3.33079,-0.27 -0.145934,-0.1485 -1.98626,-2.255576 -4.089613,-4.68239 l -3.824279,-4.412388 -2.474932,0.03239 -2.474932,0.03239 -0.06358,4.62 c -0.03497,2.541 -0.07547,4.6335 -0.09,4.65 -0.01453,0.0165 -1.162118,0.03 -2.55019,0.03 -1.908547,0 -2.537691,-0.03657 -2.58089,-0.15 z M 86.999659,23.640962 c 1.807474,-0.207783 3.006783,-1.019349 3.704121,-2.50656 0.279927,-0.597 0.315766,-0.819011 0.312272,-1.934402 C 91.0128,18.161849 90.965642,17.838779 90.74822,17.365109 90.357,16.512807 89.406239,15.571174 88.526684,15.164901 L 87.78,14.82 H 83.1 78.42 l -0.03152,4.371978 c -0.02464,3.41787 0.0015,4.39297 0.12,4.468163 0.215997,0.137113 7.27021,0.12118 8.491179,-0.01918 z m 60.295681,14.009039 c -0.0314,-0.0825 -0.0432,-6.333 -0.0262,-13.890001 l 0.0309,-13.74 2.55,-0.032386 c 1.4025,-0.017812 2.5622,-0.017812 2.57711,0 0.0149,0.017812 0.0554,2.651386 0.09,5.852386 l 0.0629,5.82 h 6.78 6.78 l 0.06,-5.82 0.06,-5.82 h 2.52 2.52 v 13.86 13.860001 h -2.52 -2.52 l -0.0312,-5.513676 c -0.024,-4.227864 -0.0659,-5.535711 -0.18,-5.608163 -0.17273,-0.109697 -13.05536,-0.134154 -13.33896,-0.02532 -0.16918,0.06492 -0.18982,0.657448 -0.18982,5.450186 0,2.95754 -0.0328,5.462763 -0.0728,5.567161 -0.0632,0.164718 -0.40483,0.189815 -2.58377,0.189815 -1.89827,0 -2.52486,-0.0366 -2.56805,-0.15 z m 36.84,0 c -0.0314,-0.0825 -0.0432,-6.36 -0.0262,-13.950001 L 184.14,9.9000002 190.02,9.863939 c 3.91188,-0.023991 6.26158,0.010147 7.02,0.1019935 4.77822,0.5786465 8.32237,2.9615225 10.31248,6.9334895 1.27154,2.537848 1.82281,5.970948 1.44394,8.99246 -0.32988,2.630766 -1.42947,5.328573 -2.93196,7.193425 -2.0018,2.484585 -5.17288,4.157356 -8.70132,4.590009 -1.54462,0.189401 -12.95448,0.167229 -13.0278,-0.02531 z m 13.66335,-5.293432 c 1.27124,-0.384912 1.70838,-0.599725 2.68669,-1.32028 3.95234,-2.911005 4.31772,-10.166101 0.69636,-13.827278 -1.44372,-1.459582 -3.0068,-2.127356 -5.45448,-2.33023 -1.53884,-0.127546 -5.99998,-0.160092 -6.29744,-0.04594 -0.17072,0.06551 -0.18982,0.963245 -0.18982,8.92 0,4.865939 0.0405,8.888369 0.09,8.938734 0.0495,0.05036 1.737,0.06772 3.75,0.03856 3.54527,-0.05135 3.69318,-0.06306 4.71869,-0.373564 z M 40.29566,34.470001 C 39.262673,33.488942 36.48,30.51214 36.48,30.388148 c 0,-0.05717 0.2025,-0.21783 0.45,-0.357012 C 38.265749,29.279973 39.379055,27.553421 39.619608,25.86 39.970178,23.392095 38.696243,20.801688 36.61326,19.746922 35.222227,19.04254 35.166574,19.03648 29.438279,18.965601 L 24.136558,18.9 23.078279,17.878353 c -4.94134,-4.770299 -5.57778,-5.414446 -5.51397,-5.580734 0.140701,-0.366662 16.504987,-0.156038 18.912395,0.24342 4.255016,0.706031 7.476057,3.030975 9.308636,6.718961 0.981836,1.975905 1.287947,3.277647 1.298054,5.52 0.0086,1.900146 -0.09363,2.610607 -0.604128,4.200001 -0.744591,2.318218 -2.121638,4.221064 -4.158458,5.746286 -0.837679,0.627276 -1.134349,0.589732 -2.025148,-0.256286 z"
         id="path857" />
      <path
         style="fill:#526aae;stroke-width:0.12"
         d="M 45.84,54.599635 C 44.151434,54.332666 43.456087,53.787495 40.560041,50.460001 37.029856,46.403894 29.11695,37.698909 28.849208,37.576918 c -0.201744,-0.09192 -1.381776,-0.136917 -3.590632,-0.136917 -3.130042,0 -3.296176,0.01129 -3.414354,0.232111 C 21.76212,37.82552 21.72,40.644325 21.72,45.985411 c 0,7.11989 -0.02222,8.112914 -0.186804,8.347889 l -0.186805,0.266701 H 10.861767 c -9.3714764,0 -10.50464468,-0.02002 -10.67319557,-0.188572 C 0.01831541,54.241173 0,51.723637 0,28.491429 0,14.339143 0.03036934,2.7600001 0.06748743,2.7600001 c 0.03711809,0 0.86043457,0.7695 1.82959217,1.71 0.9691576,0.9405 2.0457882,1.9852827 2.3925125,2.3217391 L 4.92,7.4034784 4.921769,28.15174 c 0.00141,16.484546 0.032951,20.80991 0.1535094,21.048261 l 0.1517404,0.3 4.4364906,0.03169 C 13.72777,49.560719 14.112586,49.546209 14.25,49.358754 14.368238,49.197457 14.4,45.743 14.4,33.044147 c 0,-10.520001 0.04129,-16.135501 0.118997,-16.183526 0.06545,-0.04045 0.780948,0.562502 1.59,1.339893 4.10579,3.94512 5.28666,5.120626 5.440808,5.416095 0.133075,0.255077 0.168873,1.026842 0.169456,3.653391 7.2e-4,3.185913 0.01128,3.340541 0.244345,3.573607 0.234196,0.234195 0.37756,0.243114 3.710784,0.230846 2.545932,-0.0094 3.541367,0.0267 3.746394,0.135742 0.153569,0.08168 0.744168,0.585296 1.312444,1.119154 1.064466,0.999998 20.596545,19.839969 22.165892,21.380456 l 0.879119,0.862952 -3.459119,-0.01118 c -1.902516,-0.0062 -3.56712,0.01911 -3.69912,0.05613 -0.132,0.03702 -0.483,0.02889 -0.78,-0.01807 z m 11.58,-3.726744 c -0.33,-0.338951 -1.236436,-1.183627 -2.014301,-1.877058 -1.51074,-1.346757 -1.864643,-1.85172 -2.110773,-3.011739 -0.09676,-0.456012 -0.135446,-6.261024 -0.136763,-20.52 -9.6e-4,-10.936252 -0.04151,-19.9435099 -0.09,-20.0161294 C 52.797181,5.042133 52.683559,5.0400001 31.335701,5.0400001 18.895085,5.0400001 10.097257,4.994997 9.9275962,4.9304922 9.6283175,4.8167066 5.64,0.5621724 5.64,0.35670268 5.64,0.28145703 14.906447,0.24 31.725307,0.24 c 21.802357,0 26.107468,0.0267024 26.220277,0.16263096 0.09924,0.11957448 0.126957,6.90366934 0.104694,25.62458204 L 58.02,51.489164 Z M 119.7,38.328915 c -3.91128,-0.379319 -6.67255,-1.575192 -8.94336,-3.873268 -1.92635,-1.949478 -3.05413,-4.145342 -3.73672,-7.275647 -0.21681,-0.994287 -0.21293,-5.131434 0.006,-6.24 0.92517,-4.687671 3.69565,-8.398825 7.615,-10.200568 1.8737,-0.8613471 3.88745,-1.2596549 6.36493,-1.2589493 3.28404,9.36e-4 5.87234,0.7124383 8.23428,2.2635463 0.90196,0.592319 2.65337,2.296064 3.31854,3.228214 1.23653,1.732842 2.12124,3.939509 2.50524,6.24864 0.25155,1.512628 0.18869,4.729917 -0.11935,6.108906 -1.32278,5.921762 -5.10798,9.687779 -10.80989,10.755143 -0.98862,0.185065 -3.57484,0.327356 -4.43454,0.243983 z m 2.47728,-4.736239 c 3.85733,-0.395209 6.4427,-2.57349 7.61816,-6.418596 0.30544,-0.999118 0.32848,-1.22483 0.33015,-3.23408 0.002,-2.487322 -0.17145,-3.354502 -1.00999,-5.048304 -1.15196,-2.326837 -2.97555,-3.830136 -5.47456,-4.513017 -1.31904,-0.360442 -3.89188,-0.362007 -5.21826,-0.0032 -3.06138,0.828211 -5.33082,3.175338 -6.25016,6.464115 -0.22545,0.806504 -0.26243,1.239346 -0.25973,3.04038 0.004,2.461595 0.18329,3.326266 1.06155,5.110667 1.36506,2.773469 3.79665,4.330361 7.26556,4.651984 0.231,0.02142 0.48178,0.04758 0.55728,0.05814 0.0755,0.01056 0.69652,-0.03809 1.38,-0.10812 z M 73.2,23.82 V 9.9600002 h 7.246744 c 6.112322,0 7.403796,0.029775 8.25,0.1902018 3.51149,0.665723 6.02841,2.776556 7.142132,5.989798 0.310438,0.895656 0.33302,1.09271 0.336931,2.94 0.0049,2.300608 -0.131069,2.972507 -0.920457,4.549458 -0.358828,0.716824 -0.734108,1.23863 -1.294552,1.8 -0.976303,0.977916 -1.871725,1.5167 -3.354482,2.018422 -0.725955,0.245643 -1.141354,0.447763 -1.132786,0.551182 0.0074,0.08982 1.856941,2.251631 4.11,4.804033 2.253059,2.552404 4.09647,4.693873 4.09647,4.75882 0,0.0744 -1.146491,0.118086 -3.098999,0.118086 h -3.099 l -3.711,-4.281288 c -2.041051,-2.354708 -3.879377,-4.460708 -4.085171,-4.68 L 83.311662,28.320001 H 80.91983 c -1.700312,0 -2.433463,0.04163 -2.53583,0.144 -0.106921,0.106921 -0.144,1.311999 -0.144,4.68 v 4.536 H 75.72 73.2 Z m 14.881646,-0.274441 c 1.293237,-0.433021 2.36917,-1.461061 2.822518,-2.696879 0.33149,-0.903636 0.307972,-2.439212 -0.05144,-3.358279 C 90.306407,16.09336 89.007779,15.062272 87.427961,14.771193 86.399795,14.581755 78.575165,14.592835 78.384,14.784 c -0.106686,0.106686 -0.144,1.267555 -0.144,4.48 0,2.384801 0.03886,4.374865 0.08637,4.422366 0.149115,0.149116 9.283161,0.01728 9.75528,-0.140807 z M 147.36,23.88 v -13.8 h 2.52 2.52 v 5.736 c 0,4.301333 0.036,5.772017 0.144,5.88 0.20782,0.207814 13.42418,0.207814 13.632,0 0.10799,-0.107984 0.144,-1.579207 0.144,-5.882435 v -5.738434 l 2.49,0.03243 2.49,0.03243 v 13.74 13.740001 l -2.49,0.03243 -2.49,0.03243 -0.002,-5.432435 c -0.001,-2.987839 -0.045,-5.500385 -0.0977,-5.583435 -0.0756,-0.119044 -1.54181,-0.144441 -6.92817,-0.12 l -6.83233,0.031 -0.0312,5.550001 -0.0312,5.55 h -2.5188 -2.5188 z m 36.77534,13.650001 c -0.0314,-0.0825 -0.0432,-6.306 -0.0262,-13.830001 l 0.0309,-13.68 6.24,-0.034613 c 6.90744,-0.038315 7.6165,0.013595 9.72,0.711601 4.55915,1.51286 7.69182,5.347807 8.51429,10.423012 0.23773,1.466972 0.23859,4.10215 0.002,5.474282 -1.0201,5.910752 -5.02264,9.973307 -10.73938,10.90041 -1.52001,0.246507 -13.64905,0.277673 -13.74135,0.03531 z M 198.06,32.368256 c 2.46271,-0.82633 4.20398,-2.49669 5.06554,-4.859269 0.41341,-1.133689 0.63462,-2.393925 0.63355,-3.609543 -0.004,-4.400395 -2.23373,-7.666995 -6.00105,-8.790997 -0.82588,-0.246406 -1.20069,-0.272009 -4.6645,-0.318626 -3.05517,-0.04111 -3.78568,-0.02039 -3.86817,0.109745 -0.11655,0.183875 -0.14498,17.377589 -0.0292,17.679226 0.0691,0.180196 0.43564,0.194433 3.99,0.154999 3.87274,-0.04296 3.92395,-0.04681 4.87386,-0.365535 z M 39.999622,34.110001 C 38.267746,32.332095 36.6,30.511101 36.6,30.397988 c 0,-0.06259 0.206255,-0.229715 0.458344,-0.371397 0.642687,-0.36121 1.616354,-1.426539 2.007522,-2.196511 0.469754,-0.924662 0.651285,-1.707912 0.651285,-2.81008 0,-2.866303 -1.575013,-4.95625 -4.437151,-5.887836 -0.577742,-0.188046 -1.312547,-0.223378 -5.895719,-0.283492 L 24.148564,18.78 23.504281,18.183939 c -2.060982,-1.906732 -5.975952,-5.792268 -5.906312,-5.861907 0.122135,-0.122136 13.440611,-0.09259 15.953787,0.03539 3.44759,0.175566 5.674148,0.748226 7.72158,1.985952 2.376052,1.436386 4.224777,3.803825 5.15128,6.596623 0.942934,2.842324 0.793577,6.23583 -0.398899,9.063301 -0.773938,1.835076 -2.248837,3.67352 -3.738911,4.660503 -0.92992,0.615953 -1.214938,0.546941 -2.287184,-0.553803 z"
         id="path855" />
      <path
         style="fill:#29479a;stroke-width:0.12"
         d="m 0.43260335,54.459608 c 0.0574306,-0.09292 0.0226097,-0.115772 -0.10298691,-0.06758 -0.11176968,0.04289 -0.21849437,-0.0021 -0.25968538,-0.109422 C -0.02866024,54.025685 -0.01771802,3.1858015 0.08098394,2.9285883 0.14611516,2.7588591 0.17547786,2.7512921 0.23098393,2.8899325 0.26894278,2.9847442 1.272,3.9961616 2.46,5.1375265 c 1.188,1.141365 2.2250644,2.2208436 2.3045875,2.3988414 0.1109071,0.2482449 0.1458484,5.1509251 0.15,21.0468291 L 4.92,49.306392 5.1867007,49.493197 c 0.2293203,0.160621 0.8684451,0.186804 4.56,0.186804 4.1332993,0 4.3022433,-0.0089 4.5332993,-0.24 0.237622,-0.237622 0.24,-0.4 0.24,-16.385963 0,-13.77089 0.0246,-16.131848 0.167251,-16.05 0.304002,0.174424 6.488455,6.168014 6.702118,6.495277 0.186507,0.285671 0.209437,0.687913 0.21,3.683984 4.8e-4,2.849124 0.02919,3.404073 0.187435,3.63 0.185602,0.264984 0.208806,0.266702 3.603854,0.266702 2.739174,0 3.501034,0.03509 3.840398,0.176886 0.232842,0.09729 0.872007,0.596787 1.42037,1.11 1.006848,0.942309 20.544284,19.786658 22.074608,21.291516 0.454319,0.446758 0.886319,0.837119 0.96,0.867469 0.07368,0.03035 -0.149534,0.05945 -0.496034,0.06466 -0.3465,0.0052 -0.63,-0.04453 -0.63,-0.110526 0,-0.0759 -0.86,-0.12 -2.34,-0.12 -1.48,0 -2.34,0.0441 -2.34,0.12 0,0.07242 -0.502361,0.12 -1.267082,0.12 -0.814164,0 -1.240572,-0.04289 -1.192918,-0.12 0.04079,-0.066 -0.02352,-0.120528 -0.142918,-0.121172 -0.399117,-0.0022 -1.457685,-0.576036 -2.029452,-1.100226 -0.31112,-0.285231 -1.3483,-1.409602 -2.304846,-2.498602 -4.618492,-5.258022 -11.814315,-13.175843 -12.08751,-13.300319 -0.483652,-0.220367 -6.656158,-0.193229 -6.962338,0.03061 -0.226138,0.165322 -0.233882,0.412354 -0.265354,8.464694 -0.02805,7.176862 -0.05625,8.303548 -0.209311,8.362282 -0.09729,0.03733 -0.147016,0.116222 -0.1105,0.175306 0.03889,0.06292 -4.28934,0.107426 -10.447771,0.107426 -7.9970378,0 -10.49339166,-0.03361 -10.42739665,-0.140393 z M 56.879911,50.248278 c -0.561049,-0.543552 -1.434859,-1.353266 -1.941799,-1.799363 -0.664698,-0.58492 -1.016015,-1.003183 -1.259911,-1.5 L 53.34,46.260001 53.278472,25.8 C 53.244632,14.547 53.204132,5.3284001 53.188472,5.3142222 52.870962,5.0267574 51.750221,5.0120751 31.66872,5.0323031 16.86534,5.0472144 10.552824,5.0150057 10.210456,4.9228156 9.7977328,4.8116808 9.4256423,4.466185 7.7154113,2.6061011 L 5.7054278,0.42000001 31.742714,0.38922865 C 56.115882,0.36042398 57.789587,0.37147679 57.93,0.56216421 c 0.118879,0.16144285 0.15,5.43976359 0.15,25.44077179 0,13.880386 -0.0405,25.23629 -0.09,25.235342 -0.0495,-9.6e-4 -0.549041,-0.446447 -1.110089,-0.99 z M 118.74,38.152765 c -6.72122,-0.904272 -11.13096,-5.580093 -11.82129,-12.534585 -0.44482,-4.48115 0.98283,-8.950648 3.8218,-11.964781 1.11099,-1.179538 2.13832,-1.927979 3.67949,-2.68062 4.43548,-2.166092 10.36398,-1.9037314 14.46,0.639914 1.12879,0.700982 2.91816,2.417947 3.69635,3.546776 1.75743,2.54932 2.57162,5.260201 2.58307,8.600531 0.0256,7.460457 -4.13082,12.900295 -10.86916,14.225389 -1.17772,0.2316 -4.35968,0.327557 -5.55026,0.167376 z m 5.04,-4.720672 c 0.396,-0.106963 1.179,-0.418192 1.74,-0.69162 1.26682,-0.61744 2.71757,-2.001938 3.41644,-3.260408 0.98192,-1.768197 1.46721,-4.024073 1.34514,-6.252845 -0.092,-1.67971 -0.41526,-2.957079 -1.09502,-4.32722 -1.59087,-3.206607 -4.29474,-4.857271 -7.98656,-4.875661 -2.17777,-0.01085 -3.64416,0.355906 -5.20433,1.301635 -3.64135,2.207282 -5.23615,7.57993 -3.66119,12.334027 0.49076,1.481404 1.17652,2.595146 2.25435,3.66128 1.2538,1.240196 2.65034,1.93164 4.69117,2.322655 0.66098,0.126642 3.79266,-0.02078 4.5,-0.211843 z m -50.524658,4.097908 c -0.03142,-0.0825 -0.04323,-6.306 -0.02623,-13.830001 L 73.26,10.02 79.74,9.9838657 c 8.38466,-0.046755 9.488118,0.064022 11.696126,1.1741873 2.269233,1.140948 3.848422,3.13605 4.513278,5.701947 0.312239,1.205027 0.286235,3.623985 -0.05261,4.894407 -0.767326,2.876879 -2.586159,4.739543 -5.57908,5.713529 -0.527413,0.171636 -0.978017,0.37014 -1.001341,0.441122 -0.02332,0.07098 1.824918,2.244834 4.107207,4.830784 2.282289,2.585949 4.116461,4.755374 4.075937,4.820943 -0.04549,0.07361 -1.178707,0.119216 -2.962428,0.119216 H 91.648338 L 91.27417,37.282594 c -0.205794,-0.218574 -2.045326,-2.324574 -4.08785,-4.68 l -3.713679,-4.282593 h -2.603482 c -2.263335,0 -2.612999,0.0248 -2.67632,0.189814 -0.04006,0.104398 -0.07284,2.210398 -0.07284,4.68 v 4.490186 h -2.403766 c -1.812546,0 -2.417817,-0.03689 -2.460892,-0.15 z M 87.617278,23.706846 c 1.031679,-0.21867 1.677415,-0.555223 2.343726,-1.221534 0.967117,-0.967117 1.428748,-2.484817 1.220023,-4.011052 -0.203277,-1.486389 -1.18408,-2.791421 -2.594859,-3.452653 L 87.9,14.7 83.110318,14.664766 c -3.817277,-0.02808 -4.809677,-0.0037 -4.888163,0.12 -0.148408,0.233935 -0.127619,8.583433 0.02207,8.863123 0.119238,0.222798 0.293778,0.232027 4.35,0.230028 3.16969,-0.0016 4.42503,-0.04432 5.023056,-0.171071 z m 59.798062,13.823155 c -0.0314,-0.0825 -0.0432,-6.279 -0.0262,-13.770001 l 0.0309,-13.62 2.43,-0.03248 2.43,-0.03249 0.002,5.732484 c 0.001,3.152867 0.045,5.800432 0.0977,5.883478 0.0756,0.119053 1.55381,0.144437 6.98817,0.12 L 166.26,21.78 l 0.06,-5.82 0.06,-5.82 h 2.4 2.4 v 13.74 13.740001 h -2.4 -2.4 l -0.06,-5.58 -0.06,-5.580001 -6.84,-0.03131 c -6.32383,-0.02895 -6.85132,-0.0159 -6.99,0.172936 -0.11479,0.156302 -0.15,1.480595 -0.15,5.641314 v 5.437065 h -2.40377 c -1.81254,0 -2.41782,-0.03689 -2.46089,-0.15 z m 36.84,0 c -0.0314,-0.0825 -0.0432,-6.306 -0.0262,-13.830001 l 0.0309,-13.68 5.4,-0.036795 c 5.90692,-0.04025 7.67411,0.05675 9.52205,0.522663 1.53999,0.388271 3.76022,1.499859 4.91352,2.460029 5.54958,4.620247 6.27324,14.419719 1.49346,20.223858 -1.96348,2.384276 -5.21531,3.997761 -8.79814,4.365428 -1.83204,0.188001 -12.46249,0.166647 -12.53555,-0.02518 z M 196.92,32.708678 c 2.7045,-0.489664 4.71196,-1.934341 5.85912,-4.216555 0.77518,-1.54217 1.0376,-2.772419 1.02221,-4.792123 -0.0144,-1.885624 -0.26596,-2.971612 -1.05641,-4.56 -1.24918,-2.510174 -3.41141,-3.982872 -6.42527,-4.376262 -0.58955,-0.07695 -2.31042,-0.118464 -4.07965,-0.09841 l -3.06,0.03468 -0.031,8.94 c -0.0171,4.917001 -0.005,9.007501 0.0262,9.090001 0.0838,0.219553 6.51215,0.201854 7.7448,-0.02132 z M 40.876496,34.811953 c -0.419905,-0.276836 -4.149939,-4.223199 -4.153761,-4.394664 -0.0015,-0.06749 0.186041,-0.224374 0.416767,-0.348628 0.597806,-0.321941 1.658034,-1.473905 2.027411,-2.202835 0.887294,-1.750991 0.87455,-3.962894 -0.03317,-5.757058 -0.685867,-1.355658 -1.751125,-2.275504 -3.352297,-2.894693 L 34.98,18.904149 29.624323,18.842075 24.268648,18.78 23.624323,18.183939 C 23.269945,17.856105 21.765,16.407461 20.28,14.96473 l -2.7,-2.623149 8.76,0.05178 c 7.501205,0.04434 8.923816,0.08068 9.9,0.252888 3.827837,0.675272 6.645262,2.366753 8.517748,5.113751 2.625448,3.851619 2.941845,8.703287 0.841261,12.900001 -0.330351,0.66 -0.918847,1.583386 -1.30777,2.051971 -0.733536,0.883782 -2.514487,2.32862 -2.868625,2.327238 -0.111438,-4.8e-4 -0.357191,-0.102701 -0.546118,-0.227257 z"
         id="path853" />
      <path
         style="fill:#1f4295;stroke-width:0.12"
         d="m 5.6790196,54.510027 c 2.8924608,-0.01791 7.5904604,-0.0179 10.4399994,1.5e-5 2.849539,0.01792 0.482981,0.03257 -5.259019,0.03256 -5.742,-7e-6 -8.0734412,-0.01467 -5.1809804,-0.03258 z m 40.3750024,0.0014 c 0.348713,-0.02432 0.888713,-0.02406 1.2,6e-4 0.311288,0.02463 0.02598,0.04453 -0.634022,0.04421 -0.66,-3.6e-4 -0.91469,-0.02046 -0.565978,-0.04478 z m 6.775978,0.0027 c 0.1815,-0.0275 0.4785,-0.0275 0.66,0 0.1815,0.02749 0.033,0.04999 -0.33,0.04999 -0.363,0 -0.5115,-0.0225 -0.33,-0.04999 z M 0.07669961,54.180248 C -0.04057445,53.874637 0.00223609,3.2140514 0.12,2.9400001 L 0.22313154,2.7 0.22825698,2.9400001 C 0.23147334,3.0906105 1.0726418,3.9898446 2.4866912,5.3543334 L 4.74,7.5286668 4.8,28.478347 c 0.04857,16.958777 0.089695,20.979396 0.2158781,21.105667 0.1210613,0.121146 1.1570081,0.163613 4.6380338,0.190127 l 4.4821551,0.03414 0.251967,-0.320323 L 14.64,49.167634 V 33.150446 17.133256 l 1.29,1.212181 c 0.7095,0.6667 2.248991,2.144218 3.42109,3.283373 l 2.131089,2.07119 -0.0011,3.397889 c -0.0011,3.348915 0.04126,3.766145 0.406875,4.010274 0.07262,0.04849 1.65927,0.08899 3.52589,0.09 2.679407,0.0015 3.480926,0.03822 3.807476,0.17466 0.340884,0.142431 15.415571,14.552373 22.471721,21.480792 l 1.473053,1.446386 -3.993053,-2.4e-4 c -4.383545,-2.4e-4 -4.278176,0.0148 -5.426289,-0.775121 -0.29474,-0.202785 -1.469836,-1.434267 -2.611326,-2.736626 -4.433123,-5.057877 -11.76901,-13.132001 -12.132903,-13.353883 -0.353981,-0.215836 -0.62562,-0.23328 -3.63924,-0.233695 -3.027915,-3.6e-4 -3.276607,0.01566 -3.54,0.228912 l -0.283293,0.22936 -0.03245,8.255074 c -0.02504,6.370893 -0.06613,8.276466 -0.18,8.348802 -0.244571,0.155363 -20.81908944,0.120531 -20.91546536,-0.03541 -0.058924,-0.09534 -0.10699444,-0.0925 -0.17038242,0.01006 -0.0629147,0.101798 -0.11035097,0.08541 -0.16500001,-0.057 z M 56.692254,49.945531 c -0.66426,-0.641041 -1.531082,-1.46253 -1.926271,-1.82553 -0.407511,-0.374319 -0.845667,-0.919711 -1.012254,-1.26 L 53.46,46.260001 53.4,25.819384 53.34,5.3787683 53.056706,5.1493842 C 52.900894,5.0232229 52.603894,4.9172503 52.396706,4.9138896 52.189518,4.9105287 42.651,4.9095043 31.2,4.9116132 14.970601,4.9146019 10.305734,4.8828757 10.043176,4.7677237 9.8579233,4.6864756 8.8713556,3.7020001 7.8508036,2.58 L 5.9952546,0.54000001 31.881353,0.50972593 c 14.237354,-0.0166508 25.929548,0.0131758 25.982654,0.0662812 0.05311,0.0531054 0.08293,11.44521787 0.06627,25.31580487 L 57.9,51.111062 Z M 118.62,38.022573 c -4.74994,-0.605436 -8.59278,-3.460285 -10.45465,-7.766766 -2.23706,-5.174296 -1.32307,-11.838239 2.19754,-16.022256 3.48744,-4.144602 9.81083,-5.6998453 15.63362,-3.845098 4.44522,1.41595 7.6998,5.226666 8.78273,10.283507 0.34911,1.630238 0.37098,4.521612 0.0469,6.20804 -1.21089,6.30181 -5.45945,10.392885 -11.58303,11.153668 -1.18621,0.147375 -3.42197,0.142008 -4.62314,-0.0111 z m 5.31852,-4.535449 c 1.77965,-0.511877 3.29216,-1.479769 4.28304,-2.740821 2.51638,-3.202476 2.91361,-8.322623 0.9443,-12.171499 -0.45615,-0.891522 -0.77624,-1.320286 -1.59813,-2.140736 -1.72675,-1.723731 -3.32616,-2.383659 -6.01848,-2.48327 -3.23209,-0.11958 -5.48749,0.723471 -7.3673,2.753846 -0.94334,1.018892 -1.85652,2.78928 -2.24653,4.355356 -0.40267,1.616898 -0.37319,4.212344 0.0667,5.873706 1.01178,3.821177 3.41932,6.111933 7.13757,6.791345 1.00546,0.183722 3.81762,0.04429 4.79882,-0.237927 z M 73.32,23.812569 V 10.065137 l 7.41,0.04282 7.41,0.04282 1.16686,0.316902 c 2.767004,0.751479 4.791892,2.36329 5.910801,4.704998 0.665471,1.392728 0.828851,2.194193 0.820981,4.027322 -0.01181,2.7511 -0.674072,4.510776 -2.304811,6.124038 -1.033746,1.022668 -1.955562,1.561184 -3.493831,2.041064 -0.65653,0.204812 -1.03322,0.385739 -1.0571,0.507731 -0.0204,0.10424 0.357004,0.638997 0.83869,1.188348 0.481685,0.549351 2.28038,2.592826 3.997101,4.541056 1.71672,1.94823 3.195421,3.63573 3.286002,3.75 0.155265,0.195869 -0.0027,0.207453 -2.76,0.202325 L 91.62,37.549125 87.598096,32.904562 83.576192,28.260001 80.938258,28.227577 c -2.374016,-0.02918 -2.652957,-0.01188 -2.788096,0.172935 C 78.036299,28.55623 78,29.688113 78,33.082936 v 4.477065 h -2.34 -2.34 z m 14.04,0.06321 C 88.981085,23.62139 90.278317,22.674113 90.940751,21.261018 91.22843,20.647346 91.26,20.443534 91.26,19.2 c 0,-1.259269 -0.02858,-1.438131 -0.326638,-2.044472 -0.515214,-1.048089 -1.076706,-1.614627 -2.103271,-2.122176 L 87.913146,14.58 83.109683,14.543545 c -4.455646,-0.03381 -4.81455,-0.02129 -4.956573,0.172936 -0.189782,0.259543 -0.222844,8.484479 -0.03608,8.975707 L 78.23406,24 82.40703,23.99904 C 84.702163,23.99856 86.931,23.94305 87.36,23.87573 Z m 60.12,0.0042 V 10.199995 h 2.34 2.34 v 5.677065 c 0,4.352725 0.035,5.724709 0.15,5.881301 0.13872,0.18888 0.67334,0.201883 7.11,0.172935 l 6.96,-0.0313 0.0311,-5.850001 0.0311,-5.85 h 2.33886 2.33886 v 13.680001 13.68 h -2.34 -2.34 v -5.567161 c 0,-4.965825 -0.0205,-5.57503 -0.18982,-5.640001 -0.1044,-0.04006 -3.26473,-0.07283 -7.02296,-0.07283 h -6.83316 l -0.11704,0.307812 c -0.0697,0.183236 -0.11702,2.465841 -0.11702,5.640001 v 5.332188 h -2.34 -2.34 V 23.88 Z m 36.84,-0.06 V 10.079995 h 5.70473 c 3.26273,0 6.19879,0.05509 6.8589,0.128698 6.14991,0.685756 10.24181,4.477499 11.51603,10.671303 0.29125,1.415672 0.28998,4.463193 -0.003,5.94 -1.20539,6.087065 -5.37117,9.926384 -11.51356,10.611302 -0.66006,0.07361 -3.59612,0.128703 -6.85885,0.128703 H 184.32 V 23.82 Z m 13.62,8.773207 c 3.56568,-1.082873 5.60555,-3.783857 5.9999,-7.944455 0.0975,-1.028575 -0.11178,-2.920375 -0.44256,-4.000669 -0.68545,-2.23864 -2.28079,-4.233522 -4.07196,-5.091785 -1.75408,-0.840489 -2.37705,-0.939765 -6.31105,-1.00572 -1.92811,-0.03233 -3.64261,-0.0244 -3.81,0.01761 L 189,14.644567 v 9.097715 c 0,5.003743 0.0405,9.138491 0.09,9.188332 0.0495,0.04984 1.818,0.06811 3.93,0.0406 3.76985,-0.0491 3.85973,-0.05601 4.92,-0.378008 z M 39.320453,33.093281 c -0.97875,-1.008307 -1.935489,-2.027832 -2.126086,-2.265612 l -0.346538,-0.432326 0.591573,-0.383327 c 2.383952,-1.544748 3.191382,-5.059157 1.809069,-7.874124 -0.74625,-1.519672 -1.711758,-2.365972 -3.474123,-3.045181 L 34.98,18.786572 29.625942,18.723286 24.271884,18.66 21.118538,15.6 17.965193,12.54 18.492596,12.50024 c 1.400206,-0.105564 16.670012,0.08015 17.48876,0.212703 3.034881,0.491332 5.113584,1.44867 6.981356,3.215234 3.727484,3.525503 4.888788,8.699673 3.051132,13.594266 -0.438236,1.167242 -1.282512,2.53105 -2.124811,3.432329 -0.901419,0.96454 -2.18946,1.963987 -2.536929,1.968516 -0.169731,0.0022 -0.833558,-0.595728 -2.031651,-1.83 z"
         id="path851" />
      <path
         style="fill:#203e97;stroke-width:0.12"
         d="m 5.6790196,54.510027 c 2.8924608,-0.01791 7.5904604,-0.0179 10.4399994,1.5e-5 2.849539,0.01792 0.482981,0.03257 -5.259019,0.03256 -5.742,-7e-6 -8.0734412,-0.01467 -5.1809804,-0.03258 z m 40.3750024,0.0014 c 0.348713,-0.02432 0.888713,-0.02406 1.2,6e-4 0.311288,0.02463 0.02598,0.04453 -0.634022,0.04421 -0.66,-3.6e-4 -0.91469,-0.02046 -0.565978,-0.04478 z m 6.775978,0.0027 c 0.1815,-0.0275 0.4785,-0.0275 0.66,0 0.1815,0.02749 0.033,0.04999 -0.33,0.04999 -0.363,0 -0.5115,-0.0225 -0.33,-0.04999 z M 0.07669961,54.180248 C -0.04057445,53.874637 0.00223609,3.2140514 0.12,2.9400001 L 0.22313154,2.7 0.22825698,2.9400001 C 0.23147334,3.0906105 1.0726418,3.9898446 2.4866912,5.3543334 L 4.74,7.5286668 4.8,28.478347 c 0.04857,16.958777 0.089695,20.979396 0.2158781,21.105667 0.1210613,0.121146 1.1570081,0.163613 4.6380338,0.190127 l 4.4821551,0.03414 0.251967,-0.320323 L 14.64,49.167634 V 33.150446 17.133256 l 1.29,1.212181 c 0.7095,0.6667 2.248991,2.144218 3.42109,3.283373 l 2.131089,2.07119 -0.0011,3.397889 c -0.0011,3.348915 0.04126,3.766145 0.406875,4.010274 0.07262,0.04849 1.65927,0.08899 3.52589,0.09 2.679407,0.0015 3.480926,0.03822 3.807476,0.17466 0.340884,0.142431 15.415571,14.552373 22.471721,21.480792 l 1.473053,1.446386 -3.993053,-2.4e-4 c -4.383545,-2.4e-4 -4.278176,0.0148 -5.426289,-0.775121 -0.29474,-0.202785 -1.469836,-1.434267 -2.611326,-2.736626 -4.433123,-5.057877 -11.76901,-13.132001 -12.132903,-13.353883 -0.353981,-0.215836 -0.62562,-0.23328 -3.63924,-0.233695 -3.027915,-3.6e-4 -3.276607,0.01566 -3.54,0.228912 l -0.283293,0.22936 -0.03245,8.255074 c -0.02504,6.370893 -0.06613,8.276466 -0.18,8.348802 -0.244571,0.155363 -20.81908944,0.120531 -20.91546536,-0.03541 -0.058924,-0.09534 -0.10699444,-0.0925 -0.17038242,0.01006 -0.0629147,0.101798 -0.11035097,0.08541 -0.16500001,-0.057 z M 118.62,38.022573 c -4.74994,-0.605436 -8.59278,-3.460285 -10.45465,-7.766766 -2.23706,-5.174296 -1.32307,-11.838239 2.19754,-16.022256 3.48744,-4.144602 9.81083,-5.6998453 15.63362,-3.845098 4.44522,1.41595 7.6998,5.226666 8.78273,10.283507 0.34911,1.630238 0.37098,4.521612 0.0469,6.20804 -1.21089,6.30181 -5.45945,10.392885 -11.58303,11.153668 -1.18621,0.147375 -3.42197,0.142008 -4.62314,-0.0111 z m 5.31852,-4.535449 c 1.77965,-0.511877 3.29216,-1.479769 4.28304,-2.740821 2.51638,-3.202476 2.91361,-8.322623 0.9443,-12.171499 -0.45615,-0.891522 -0.77624,-1.320286 -1.59813,-2.140736 -1.72675,-1.723731 -3.32616,-2.383659 -6.01848,-2.48327 -3.23209,-0.11958 -5.48749,0.723471 -7.3673,2.753846 -0.94334,1.018892 -1.85652,2.78928 -2.24653,4.355356 -0.40267,1.616898 -0.37319,4.212344 0.0667,5.873706 1.01178,3.821177 3.41932,6.111933 7.13757,6.791345 1.00546,0.183722 3.81762,0.04429 4.79882,-0.237927 z M 73.32,23.812569 V 10.065137 l 7.41,0.04282 7.41,0.04282 1.16686,0.316902 c 2.767004,0.751479 4.791892,2.36329 5.910801,4.704998 0.665471,1.392728 0.828851,2.194193 0.820981,4.027322 -0.01181,2.7511 -0.674072,4.510776 -2.304811,6.124038 -1.033746,1.022668 -1.955562,1.561184 -3.493831,2.041064 -0.65653,0.204812 -1.03322,0.385739 -1.0571,0.507731 -0.0204,0.10424 0.357004,0.638997 0.83869,1.188348 0.481685,0.549351 2.28038,2.592826 3.997101,4.541056 1.71672,1.94823 3.195421,3.63573 3.286002,3.75 0.155265,0.195869 -0.0027,0.207453 -2.76,0.202325 L 91.62,37.549125 87.598096,32.904562 83.576192,28.260001 80.938258,28.227577 c -2.374016,-0.02918 -2.652957,-0.01188 -2.788096,0.172935 C 78.036299,28.55623 78,29.688113 78,33.082936 v 4.477065 h -2.34 -2.34 z m 14.04,0.06321 C 88.981085,23.62139 90.278317,22.674113 90.940751,21.261018 91.22843,20.647346 91.26,20.443534 91.26,19.2 c 0,-1.259269 -0.02858,-1.438131 -0.326638,-2.044472 -0.515214,-1.048089 -1.076706,-1.614627 -2.103271,-2.122176 L 87.913146,14.58 83.109683,14.543545 c -4.455646,-0.03381 -4.81455,-0.02129 -4.956573,0.172936 -0.189782,0.259543 -0.222844,8.484479 -0.03608,8.975707 L 78.23406,24 82.40703,23.99904 C 84.702163,23.99856 86.931,23.94305 87.36,23.87573 Z m 60.12,0.0042 V 10.199995 h 2.34 2.34 v 5.677065 c 0,4.352725 0.035,5.724709 0.15,5.881301 0.13872,0.18888 0.67334,0.201883 7.11,0.172935 l 6.96,-0.0313 0.0311,-5.850001 0.0311,-5.85 h 2.33886 2.33886 v 13.680001 13.68 h -2.34 -2.34 v -5.567161 c 0,-4.965825 -0.0205,-5.57503 -0.18982,-5.640001 -0.1044,-0.04006 -3.26473,-0.07283 -7.02296,-0.07283 h -6.83316 l -0.11704,0.307812 c -0.0697,0.183236 -0.11702,2.465841 -0.11702,5.640001 v 5.332188 h -2.34 -2.34 V 23.88 Z m 36.84,-0.06 V 10.079995 h 5.70473 c 3.26273,0 6.19879,0.05509 6.8589,0.128698 6.14991,0.685756 10.24181,4.477499 11.51603,10.671303 0.29125,1.415672 0.28998,4.463193 -0.003,5.94 -1.20539,6.087065 -5.37117,9.926384 -11.51356,10.611302 -0.66006,0.07361 -3.59612,0.128703 -6.85885,0.128703 H 184.32 V 23.82 Z m 13.62,8.773207 c 3.56568,-1.082873 5.60555,-3.783857 5.9999,-7.944455 0.0975,-1.028575 -0.11178,-2.920375 -0.44256,-4.000669 -0.68545,-2.23864 -2.28079,-4.233522 -4.07196,-5.091785 -1.75408,-0.840489 -2.37705,-0.939765 -6.31105,-1.00572 -1.92811,-0.03233 -3.64261,-0.0244 -3.81,0.01761 L 189,14.644567 v 9.097715 c 0,5.003743 0.0405,9.138491 0.09,9.188332 0.0495,0.04984 1.818,0.06811 3.93,0.0406 3.76985,-0.0491 3.85973,-0.05601 4.92,-0.378008 z M 39.320453,33.093281 c -0.97875,-1.008307 -1.935489,-2.027832 -2.126086,-2.265612 l -0.346538,-0.432326 0.591573,-0.383327 c 2.383952,-1.544748 3.191382,-5.059157 1.809069,-7.874124 -0.74625,-1.519672 -1.711758,-2.365972 -3.474123,-3.045181 L 34.98,18.786572 29.625942,18.723286 24.271884,18.66 21.118538,15.6 17.965193,12.54 18.492596,12.50024 c 1.400206,-0.105564 16.670012,0.08015 17.48876,0.212703 3.034881,0.491332 5.113584,1.44867 6.981356,3.215234 3.727484,3.525503 4.888788,8.699673 3.051132,13.594266 -0.438236,1.167242 -1.282512,2.53105 -2.124811,3.432329 -0.901419,0.96454 -2.18946,1.963987 -2.536929,1.968516 -0.169731,0.0022 -0.833558,-0.595728 -2.031651,-1.83 z"
         id="path849" />
    </g>
  </g>
</svg>
